<svg width="30" height="30" viewBox="0 0 30 30" fill="none" xmlns="http://www.w3.org/2000/svg">
<g clip-path="url(#clip0_19_357)">
<path d="M25 11.25C25.0031 9.52517 24.56 7.82885 23.7137 6.32586C22.8675 4.82287 21.6469 3.56432 20.1705 2.67249C18.6941 1.78066 17.0121 1.28587 15.288 1.2362C13.5638 1.18653 11.8562 1.58367 10.3309 2.38902C8.80559 3.19437 7.51454 4.38056 6.58317 5.83234C5.6518 7.28412 5.11178 8.95212 5.01557 10.6743C4.91936 12.3964 5.27024 14.1142 6.03412 15.6607C6.79799 17.2072 7.94889 18.5298 9.37499 19.5V27.4375C9.3716 27.6647 9.43022 27.8886 9.54454 28.085C9.65886 28.2814 9.82455 28.4429 10.0238 28.5522C10.2231 28.6614 10.4483 28.7143 10.6754 28.7051C10.9025 28.6959 11.1227 28.625 11.3125 28.5L15 25.625L18.6875 28.5C18.8773 28.625 19.0975 28.6959 19.3246 28.7051C19.5516 28.7143 19.7769 28.6614 19.9762 28.5522C20.1754 28.4429 20.3411 28.2814 20.4554 28.085C20.5698 27.8886 20.6284 27.6647 20.625 27.4375V19.5C21.9705 18.5846 23.0722 17.3547 23.8346 15.9171C24.597 14.4794 24.9971 12.8773 25 11.25ZM7.49999 11.25C7.49999 9.76666 7.93985 8.31661 8.76396 7.08324C9.58807 5.84987 10.7594 4.88858 12.1299 4.32092C13.5003 3.75326 15.0083 3.60474 16.4632 3.89413C17.918 4.18352 19.2544 4.89782 20.3033 5.94672C21.3522 6.99561 22.0665 8.33198 22.3559 9.78684C22.6453 11.2417 22.4967 12.7497 21.9291 14.1201C21.3614 15.4906 20.4001 16.6619 19.1668 17.486C17.9334 18.3102 16.4833 18.75 15 18.75C13.0109 18.75 11.1032 17.9598 9.69669 16.5533C8.29016 15.1468 7.49999 13.2391 7.49999 11.25Z" fill="#000C26"/>
<path d="M12.75 12.3125L12.4375 14.25C12.4294 14.3658 12.4508 14.4817 12.4996 14.587C12.5484 14.6923 12.6231 14.7835 12.7167 14.8521C12.8103 14.9208 12.9198 14.9646 13.0349 14.9795C13.1499 14.9945 13.2669 14.98 13.375 14.9375L15 13.75L16.625 14.9375C16.733 14.98 16.85 14.9945 16.965 14.9795C17.0801 14.9646 17.1896 14.9208 17.2832 14.8521C17.3768 14.7835 17.4515 14.6923 17.5003 14.587C17.5491 14.4817 17.5705 14.3658 17.5625 14.25L17.25 12.3125L18.5625 11.0625C18.6413 10.9723 18.6952 10.863 18.7189 10.7455C18.7425 10.628 18.7349 10.5064 18.697 10.3927C18.6591 10.279 18.5922 10.1771 18.5028 10.0973C18.4134 10.0175 18.3047 9.96239 18.1875 9.93753L16.375 9.68753L15.5625 7.87503C15.5113 7.76936 15.4314 7.68024 15.3319 7.61789C15.2324 7.55553 15.1174 7.52246 15 7.52246C14.8825 7.52246 14.7675 7.55553 14.668 7.61789C14.5685 7.68024 14.4886 7.76936 14.4375 7.87503L13.625 9.68753L11.8125 9.93753C11.6952 9.96239 11.5865 10.0175 11.4971 10.0973C11.4077 10.1771 11.3408 10.279 11.3029 10.3927C11.265 10.5064 11.2574 10.628 11.281 10.7455C11.3047 10.863 11.3586 10.9723 11.4375 11.0625L12.75 12.3125Z" fill="#000C26"/>
</g>
<defs>
<clipPath id="clip0_19_357">
<rect width="30" height="30" fill="white"/>
</clipPath>
</defs>
</svg>
