<svg width="1000" height="1000" viewBox="0 0 1000 1000" fill="none" xmlns="http://www.w3.org/2000/svg">
<path d="M300 850C291.16 850 282.681 853.512 276.43 859.763C270.179 866.014 266.667 874.493 266.667 883.333H333.334C333.334 874.493 329.822 866.014 323.571 859.763C317.319 853.512 308.841 850 300 850Z" fill="white"/>
<path d="M366.666 783.333C357.826 783.333 349.347 786.845 343.096 793.097C336.845 799.348 333.333 807.826 333.333 816.667H400C400 807.826 396.488 799.348 390.237 793.097C383.985 786.845 375.507 783.333 366.666 783.333Z" fill="white"/>
<path d="M633.333 783.333C624.493 783.333 616.014 786.845 609.763 793.097C603.512 799.348 600 807.826 600 816.667H666.667C666.667 807.826 663.155 799.348 656.904 793.097C650.652 786.845 642.174 783.333 633.333 783.333Z" fill="white"/>
<path d="M100 1000H900C900 893.913 857.857 792.172 782.843 717.157C707.828 642.143 606.087 600 500 600C393.913 600 292.172 642.143 217.157 717.157C142.143 792.172 100 893.913 100 1000ZM450 882.592C450 889.255 448.688 895.853 446.138 902.01C443.588 908.166 439.85 913.76 435.139 918.471C430.427 923.183 424.833 926.921 418.677 929.471C412.521 932.021 405.923 933.333 399.259 933.333H250.392C237.544 933.432 225.151 928.584 215.78 919.794C206.409 911.005 200.779 898.946 200.057 886.118C199.68 877.093 201.14 868.084 204.351 859.64C207.562 851.196 212.455 843.492 218.734 836.997C225.013 830.502 232.546 825.351 240.877 821.856C249.207 818.362 258.161 816.597 267.195 816.669C267.126 807.939 268.785 799.278 272.078 791.193C275.371 783.108 280.232 775.755 286.38 769.558C292.528 763.361 299.843 758.442 307.901 755.085C315.96 751.728 324.604 750 333.333 750V744.968C333.022 729.624 338.548 714.734 348.794 703.308C359.04 691.882 373.242 684.772 388.529 683.416C396.443 682.99 404.36 684.181 411.797 686.916C419.235 689.651 426.038 693.873 431.79 699.324C437.542 704.775 442.123 711.341 445.254 718.62C448.385 725.9 450 733.742 450 741.667V882.592ZM550 741.667C550 733.742 551.615 725.9 554.746 718.62C557.877 711.341 562.458 704.775 568.21 699.324C573.962 693.873 580.765 689.651 588.203 686.916C595.64 684.181 603.557 682.99 611.47 683.416C626.758 684.772 640.96 691.882 651.206 703.308C661.452 714.734 666.978 729.624 666.667 744.968V750C675.396 750 684.04 751.728 692.099 755.085C700.157 758.442 707.472 763.361 713.62 769.558C719.768 775.755 724.629 783.108 727.922 791.193C731.215 799.278 732.874 807.935 732.805 816.665C741.839 816.593 750.793 818.362 759.123 821.857C767.454 825.351 774.987 830.502 781.266 836.997C787.545 843.493 792.438 851.196 795.649 859.64C798.859 868.084 800.32 877.093 799.943 886.119C799.221 898.946 793.591 911.005 784.22 919.795C774.849 928.584 762.456 933.432 749.608 933.333H600.74C594.077 933.333 587.479 932.021 581.323 929.471C575.167 926.921 569.573 923.183 564.861 918.471C560.15 913.76 556.412 908.166 553.862 902.01C551.312 895.853 550 889.255 550 882.592V741.667Z" fill="white"/>
<path d="M733.334 900C733.334 891.159 729.822 882.681 723.571 876.43C717.319 870.178 708.841 866.667 700 866.667C691.16 866.667 682.681 870.178 676.43 876.43C670.179 882.681 666.667 891.159 666.667 900H733.334Z" fill="white"/>
<path d="M83.3333 33.3333C96.5942 33.3333 109.312 38.6011 118.689 47.9779C128.065 57.3547 133.333 70.0724 133.333 83.3333C133.333 96.5941 128.065 109.312 118.689 118.689C109.312 128.065 96.5942 133.333 83.3333 133.333C78.9131 133.333 74.6738 135.089 71.5482 138.215C68.4226 141.34 66.6667 145.58 66.6667 150V233.333H100V164.99C115.45 161.837 129.689 154.365 141.062 143.443C152.435 132.521 160.475 118.596 164.25 103.285C168.025 87.9754 167.378 71.9086 162.386 56.9513C157.393 41.994 148.26 28.7601 136.046 18.7866C123.832 8.81323 109.039 2.50969 93.3859 0.608188C77.7325 -1.29331 61.8608 1.28528 47.6144 8.04444C33.368 14.8036 21.3316 25.4659 12.9033 38.793C4.47495 52.12 0.000623839 67.5647 0 83.3333H33.3333C33.3478 70.0769 38.6203 57.3676 47.994 47.9939C57.3677 38.6202 70.0769 33.3477 83.3333 33.3333Z" fill="white"/>
<path d="M100 266.667H66.667V300H100V266.667Z" fill="white"/>
<path d="M816.667 250L650 183.333V416.667L816.667 483.333V250Z" fill="white"/>
<path d="M833.333 483.333L1000 416.667V183.333L833.333 250V483.333Z" fill="white"/>
<path d="M78.555 556.527C85.2464 564.891 93.7336 571.644 103.388 576.284C113.043 580.924 123.617 583.334 134.329 583.333H316.666V383.333H99.9997V500H33.333L78.555 556.527ZM266.666 525H216.666V508.333H266.666V525ZM150 441.667H266.666V458.333H150V441.667ZM150 508.333H183.333V525H150V508.333Z" fill="white"/>
<path d="M466.665 33.3335C441.596 33.3204 417.438 42.7285 398.981 59.6921C380.524 76.6556 369.115 99.9359 367.018 124.917C364.92 149.897 372.287 174.754 387.657 194.558C403.027 214.362 425.278 227.666 449.998 231.834V366.667H483.331V231.834C508.051 227.666 530.302 214.362 545.672 194.558C561.042 174.754 568.409 149.897 566.312 124.917C564.214 99.9359 552.806 76.6556 534.348 59.6921C515.891 42.7285 491.733 33.3204 466.665 33.3335ZM466.665 91.6668C455.618 91.6798 445.027 96.0738 437.216 103.885C429.405 111.696 425.011 122.287 424.998 133.334H408.331C408.35 117.868 414.502 103.042 425.437 92.1063C436.373 81.1707 451.199 75.0189 466.665 75.0002V91.6668Z" fill="white"/>
</svg>
