<svg width="30" height="30" viewBox="0 0 30 30" fill="none" xmlns="http://www.w3.org/2000/svg">
<path d="M18.1218 7.00392L18.1218 7.00391C17.322 5.56914 16.7487 4.54324 16.2324 3.86911C15.7164 3.19531 15.352 3 15 3C14.648 3 14.2836 3.19531 13.7676 3.86912C13.2513 4.54325 12.678 5.56915 11.8782 7.00392L11.4686 7.73874C11.4513 7.76976 11.4342 7.80037 11.4174 7.83059C11.0176 8.54854 10.744 9.03988 10.3085 9.37051C9.87008 9.70333 9.33176 9.82485 8.55528 10.0001C8.52236 10.0076 8.489 10.0151 8.45521 10.0227L7.65977 10.2027C6.10548 10.5544 4.9981 10.8064 4.2281 11.1099C3.46753 11.4096 3.16518 11.7102 3.04922 12.0831L2.57248 11.9349L3.04922 12.0831C2.93157 12.4615 3.01021 12.9006 3.46091 13.6166C3.91501 14.3379 4.67136 15.2244 5.73012 16.4624L5.73013 16.4624L6.2724 17.0965C6.29425 17.1221 6.31583 17.1473 6.33714 17.1722C6.87029 17.7951 7.23229 18.218 7.39728 18.7487C7.56166 19.2773 7.50711 19.8378 7.42619 20.6695C7.42296 20.7026 7.41969 20.7362 7.4164 20.7702L7.33442 21.6162L6.83675 21.568L7.33442 21.6162C7.17442 23.2674 7.06093 24.4512 7.09944 25.3156C7.13791 26.1792 7.324 26.5764 7.62126 26.802C7.91035 27.0215 8.31139 27.0841 9.0986 26.8586C9.89223 26.6312 10.9302 26.1549 12.3855 25.4848L13.1302 25.1419L13.1303 25.1418C13.163 25.1267 13.1953 25.1119 13.2272 25.0972C13.9507 24.7636 14.4551 24.531 15 24.531C15.5449 24.531 16.0493 24.7636 16.7728 25.0972C16.8047 25.1119 16.837 25.1267 16.8697 25.1418L16.8698 25.1419L17.6145 25.4848C17.6145 25.4848 17.6145 25.4848 17.6145 25.4848C19.0698 26.1549 20.1078 26.6312 20.9014 26.8586C21.6886 27.0841 22.0897 27.0215 22.3788 26.802C22.676 26.5763 22.8621 26.1792 22.9006 25.3156C22.9391 24.4512 22.8256 23.2674 22.6656 21.6162L22.5836 20.7702L22.5836 20.7702C22.5803 20.7362 22.577 20.7026 22.5738 20.6694C22.4929 19.8378 22.4384 19.2773 22.6026 18.7488L22.6027 18.7486C22.7677 18.2181 23.1296 17.7953 23.6625 17.1726C23.684 17.1476 23.7057 17.1222 23.7276 17.0965L24.2699 16.4624L24.2699 16.4624C25.3287 15.2244 26.085 14.3379 26.5391 13.6166C26.9898 12.9006 27.0685 12.4615 26.9508 12.0831L27.4283 11.9347L26.9508 12.0831C26.8348 11.7103 26.5325 11.4096 25.7719 11.1099C25.0019 10.8064 23.8945 10.5544 22.3403 10.2027L21.5448 10.0227L21.6551 9.53506L21.5448 10.0227C21.5111 10.0151 21.4778 10.0076 21.445 10.0002C20.6683 9.82488 20.1301 9.70337 19.6916 9.37056L18.1218 7.00392ZM18.1218 7.00392L18.5314 7.73874L18.5314 7.73877M18.1218 7.00392L18.5314 7.73877M18.5314 7.73877C18.5489 7.7702 18.5662 7.80121 18.5832 7.8318M18.5314 7.73877L18.5832 7.8318M18.5832 7.8318C18.9827 8.54898 19.2561 9.04005 19.6915 9.37051L18.5832 7.8318Z" fill="#FFF9FB" stroke="#000C26"/>
</svg>
