<svg width="30" height="30" viewBox="0 0 30 30" fill="none" xmlns="http://www.w3.org/2000/svg">
<path d="M3.07666 27.6325C2.24258 27.2054 2.14921 26.8287 2.19211 24.0646C2.22597 21.88 2.2594 21.5581 2.50786 21.0207C3.07169 19.8005 4.4062 18.7426 5.63723 18.5395L6.08723 18.4645L7.4314 20.7352C8.17069 21.9843 8.79029 22.9548 8.80831 22.892C8.82546 22.8299 8.89724 22.148 8.96603 21.3781C9.07853 20.1177 9.06632 19.9154 8.84282 19.3484C8.70632 19.0019 8.59454 18.6627 8.59454 18.5947C8.59454 18.524 9.16238 18.4705 9.93764 18.4705H11.2807L11.0223 19.2097C10.7982 19.8507 10.7753 20.1331 10.8504 21.3322C10.898 22.0932 10.9813 22.7431 11.0355 22.7765C11.0898 22.8108 11.7246 21.8512 12.4465 20.6461L13.7591 18.4548L14.1661 18.5405C15.4251 18.8039 16.7173 19.8217 17.2263 20.9508C17.5038 21.5662 17.5317 21.8212 17.5666 24.064C17.6001 26.2055 17.5773 26.5623 17.3746 26.9568C16.9092 27.8675 17.0005 27.8566 9.88019 27.8566C4.07416 27.8566 3.47725 27.8358 3.07666 27.6325ZM8.89442 16.9987C7.26055 16.288 6.00413 13.3274 6.58907 11.5662C7.6291 8.43503 12.1312 8.43503 13.1712 11.5662C13.7618 13.3441 12.4867 16.3152 10.8373 17.0043C10.2917 17.2323 9.42563 17.23 8.89442 17.0043V16.9987ZM16.566 12.6674V11.3035L15.837 11.2435C15.246 11.1942 15.0514 11.117 14.8084 10.8346C14.5093 10.4868 14.5088 10.4804 14.5088 6.69053V2.89489L14.8846 2.51903L15.2605 2.14339H21.1776H27.0946L27.4554 2.45367L27.8161 2.76396V6.64274V10.5217L27.3963 10.8967L26.9764 11.272H23.1554H19.3345L17.9502 12.652L16.566 14.032V12.6674Z" fill="black"/>
</svg>
