<svg width="30" height="30" viewBox="0 0 30 30" fill="none" xmlns="http://www.w3.org/2000/svg">
<path d="M18.1218 7.00391L18.1218 7.00391L18.5314 7.73874L18.5314 7.73877C18.5489 7.77019 18.5662 7.8012 18.5832 7.8318C18.9827 8.54897 19.2561 9.04004 19.6915 9.3705C20.13 9.70336 20.6683 9.82487 21.445 10.0002C21.4778 10.0076 21.5111 10.0151 21.5448 10.0227L21.6551 9.53506L21.5448 10.0227L22.3403 10.2027C23.8945 10.5544 25.0019 10.8064 25.7719 11.1099C26.5325 11.4096 26.8348 11.7103 26.9508 12.0831C27.0685 12.4615 26.9898 12.9006 26.5391 13.6166C26.085 14.3379 25.3287 15.2244 24.2699 16.4624L24.2699 16.4624L23.7276 17.0965C23.7057 17.1222 23.684 17.1476 23.6625 17.1726C23.1296 17.7953 22.7677 18.2181 22.6027 18.7486L22.6026 18.7488C22.4384 19.2773 22.4929 19.8378 22.5738 20.6694C22.577 20.7026 22.5803 20.7362 22.5836 20.7702L22.5836 20.7702L22.6656 21.6162C22.8256 23.2674 22.9391 24.4512 22.9006 25.3156C22.8621 26.1792 22.676 26.5763 22.3788 26.802C22.0897 27.0215 21.6886 27.0841 20.9014 26.8586C20.1078 26.6312 19.0698 26.1549 17.6145 25.4848C17.6145 25.4848 17.6145 25.4848 17.6145 25.4848L16.8698 25.1418L16.8697 25.1418C16.837 25.1267 16.8047 25.1118 16.7728 25.0971C16.0493 24.7636 15.5449 24.531 15 24.531C14.4551 24.531 13.9507 24.7636 13.2272 25.0971C13.1953 25.1118 13.163 25.1267 13.1303 25.1418L13.1302 25.1418L12.3855 25.4848C10.9302 26.1549 9.89223 26.6312 9.0986 26.8586C8.31139 27.0841 7.91035 27.0215 7.62126 26.802C7.324 26.5763 7.13791 26.1792 7.09944 25.3156C7.06093 24.4512 7.17441 23.2674 7.33442 21.6162L7.4164 20.7702C7.41969 20.7362 7.42296 20.7026 7.42619 20.6695C7.50711 19.8378 7.56166 19.2773 7.39727 18.7487C7.23229 18.218 6.87029 17.7951 6.33713 17.1722C6.31583 17.1473 6.29425 17.1221 6.2724 17.0965L5.73013 16.4624L5.73012 16.4624C4.67136 15.2244 3.91501 14.3379 3.46091 13.6166C3.01021 12.9006 2.93157 12.4615 3.04922 12.0831L2.57248 11.9349L3.04922 12.0831C3.16518 11.7102 3.46753 11.4096 4.2281 11.1099C4.9981 10.8064 6.10548 10.5544 7.65977 10.2027L8.4552 10.0227C8.489 10.0151 8.52235 10.0076 8.55528 10.0001C9.33176 9.82485 9.87008 9.70333 10.3085 9.37051C10.744 9.03988 11.0176 8.54854 11.4174 7.83058C11.4342 7.80037 11.4513 7.76975 11.4686 7.73873L11.8782 7.00392C12.678 5.56915 13.2513 4.54325 13.7676 3.86912C14.2836 3.19531 14.648 3 15 3C15.352 3 15.7164 3.19531 16.2324 3.86911C16.7487 4.54324 17.322 5.56914 18.1218 7.00391Z" fill="#3C88AF" stroke="#000C26"/>
</svg>
