<svg width="733" height="733" viewBox="0 0 733 733" fill="none" xmlns="http://www.w3.org/2000/svg">
<path d="M732.417 366.208C732.417 438.638 710.939 509.44 670.7 569.663C630.46 629.886 573.266 676.823 506.351 704.541C439.435 732.258 365.802 739.51 294.765 725.38C223.727 711.25 158.475 676.372 107.26 625.157C56.045 573.942 21.167 508.69 7.03676 437.652C-7.09348 366.615 0.158672 292.982 27.8761 226.067C55.5936 159.151 102.531 101.957 162.754 61.7172C222.977 21.4777 293.779 0 366.209 0C414.3 0 461.92 9.47226 506.351 27.876C550.781 46.2797 591.151 73.2544 625.157 107.26C659.163 141.266 686.137 181.636 704.541 226.067C722.945 270.497 732.417 318.117 732.417 366.208ZM618.489 519.177L536.986 364.034C534.471 359.83 530.963 356.306 526.77 353.774C522.576 351.241 517.824 349.777 512.932 349.51H490.73C481.05 362.629 470.429 375.028 458.952 386.607C437.539 406.413 420.819 430.749 410.013 457.841C407.172 466.36 401.724 473.769 394.439 479.018C387.155 484.268 378.403 487.093 369.423 487.093C360.444 487.093 351.692 484.268 344.407 479.018C337.123 473.769 331.674 466.36 328.834 457.841C318.009 430.748 301.273 406.412 279.849 386.607C268.383 375.03 257.778 362.631 248.117 349.51H217.264C212.373 349.777 207.621 351.241 203.427 353.774C199.234 356.306 195.726 359.83 193.211 364.034L111.662 519.177C110.562 520.633 109.925 522.385 109.832 524.208C109.74 526.03 110.196 527.839 111.143 529.398C112.09 530.958 113.483 532.198 115.143 532.957C116.802 533.716 118.651 533.959 120.451 533.655H609.746C611.545 533.959 613.395 533.716 615.054 532.957C616.713 532.198 618.107 530.958 619.054 529.398C620.001 527.839 620.457 526.03 620.365 524.208C620.272 522.385 619.589 520.633 618.489 519.177ZM256.119 256.998C256.119 348.122 331.239 356.68 363.248 445.445C363.549 446.853 364.324 448.116 365.444 449.022C366.563 449.927 367.96 450.422 369.4 450.422C370.84 450.422 372.237 449.927 373.357 449.022C374.476 448.116 375.251 446.853 375.552 445.445C407.561 356.68 482.681 348.122 482.681 256.998C482.681 226.954 470.746 198.141 449.502 176.896C428.258 155.652 399.444 143.717 369.4 143.717C339.356 143.717 310.543 155.652 289.299 176.896C268.054 198.141 256.119 226.954 256.119 256.998ZM369.354 305.012C356.742 304.987 344.655 299.963 335.741 291.041C326.827 282.119 321.815 270.026 321.803 257.414V256.258C321.519 249.831 322.541 243.413 324.805 237.391C327.069 231.369 330.529 225.869 334.977 221.22C339.425 216.572 344.768 212.873 350.684 210.346C356.6 207.818 362.967 206.515 369.4 206.515C375.834 206.515 382.2 207.818 388.116 210.346C394.033 212.873 399.376 216.572 403.823 221.22C408.271 225.869 411.732 231.369 413.996 237.391C416.26 243.413 417.281 249.831 416.998 256.258V257.414C416.998 270.042 411.984 282.154 403.06 291.087C394.135 300.021 382.028 305.046 369.4 305.058L369.354 305.012Z" fill="#2B2B2B"/>
</svg>
