<svg width="1000" height="1001" viewBox="0 0 1000 1001" fill="none" xmlns="http://www.w3.org/2000/svg">
<path d="M850.761 148.637C942.83 240.706 1000 366.203 1000 501.473C1000 638.171 942.83 760.901 850.761 852.925C758.691 944.95 634.578 1000.78 499.308 1000.78C362.61 1000.78 239.88 944.995 147.856 852.925C55.8308 760.856 0 638.126 0 501.473C0 366.203 55.7861 240.661 147.856 148.637C239.925 56.6118 362.655 0.781006 499.308 0.781006C634.578 0.781006 758.736 56.5671 850.761 148.637ZM556.478 783.215H559.289C563.485 783.215 567.68 784.599 570.447 788.794C573.258 791.605 576.025 794.372 581.604 794.372C582.987 794.372 584.416 792.989 584.416 790.177C584.416 784.599 585.799 779.02 585.799 777.636C587.183 773.441 589.994 773.441 592.761 773.441C594.145 773.441 594.145 773.441 594.145 770.63L591.333 767.818C589.95 767.818 588.521 769.202 588.521 770.63C587.138 772.013 585.71 773.441 584.326 770.63L575.936 776.208L566.162 773.397L549.427 748.271L555.005 711.987C555.005 710.604 553.622 707.792 549.427 706.409C545.231 705.025 545.231 702.214 546.615 700.83C541.036 698.018 534.074 695.251 525.684 695.251C524.3 695.251 520.105 696.635 513.143 698.063C506.181 698.063 501.986 698.063 501.986 695.251C501.986 691.056 506.181 682.711 508.948 672.937C510.332 668.742 511.76 661.78 513.143 658.968C513.143 656.157 514.527 653.39 514.527 653.39L521.489 636.654L520.105 633.842L510.332 632.459C507.52 632.459 497.791 638.037 490.784 643.616C483.822 652.006 478.243 658.968 478.243 664.547L450.35 670.125C444.772 670.125 439.193 668.742 434.998 663.163C433.614 656.201 429.419 647.811 423.841 639.465C418.262 632.503 416.879 625.496 416.879 618.534C416.879 610.144 418.262 598.987 421.074 592.025C423.885 583.635 423.885 573.905 418.262 565.515C419.646 565.515 423.841 562.704 421.074 559.937L428.036 551.546L429.419 550.163L430.803 551.546C436.381 547.351 446.155 545.968 454.501 547.351C464.275 548.735 469.853 544.54 472.62 537.578L482.394 547.351C485.206 548.735 490.784 538.961 490.784 536.194L486.589 533.382L511.715 527.804L513.099 530.615H524.256L538.225 539.006C539.608 539.006 541.036 537.622 542.42 536.194C545.231 533.382 546.615 533.382 547.998 534.811L560.539 548.779C559.156 551.591 559.156 554.358 559.156 557.17C560.539 558.553 561.967 559.981 561.967 561.365C561.967 566.943 574.508 592.069 581.515 592.069C585.71 592.069 587.093 589.258 585.71 583.679V572.522C585.71 565.56 584.326 557.17 581.515 548.824C577.32 541.862 574.553 532.088 571.741 523.698V520.886C571.741 516.691 574.553 512.496 580.131 509.729C584.326 506.917 587.093 504.15 587.093 504.15C591.288 501.339 595.484 497.188 601.062 494.377C605.257 491.565 609.452 484.603 612.219 480.408L616.415 470.634V465.056H620.61C620.61 465.056 623.421 463.672 623.421 460.86C623.421 460.86 622.038 459.477 620.61 459.477C619.226 458.093 615.031 455.282 612.219 452.515L615.031 449.703C619.226 445.508 620.61 435.734 617.843 431.584L629 426.005C626.188 431.584 634.578 432.967 637.39 431.584L642.969 419.043C640.157 412.081 638.774 419.043 642.969 410.653C647.164 409.269 651.359 407.841 655.509 405.074C659.705 403.691 662.472 402.263 666.667 402.263C668.05 402.263 669.478 403.646 669.478 403.646C672.29 403.646 673.673 402.263 673.673 402.263C673.673 398.068 672.29 395.301 670.862 395.301L677.824 379.948C683.402 379.948 688.981 377.137 691.793 371.558L702.95 370.174C705.762 370.174 707.145 368.791 707.145 365.979V363.168L728.076 357.589L730.888 350.627L725.309 342.237C725.309 342.237 726.693 340.853 726.693 339.425C726.693 337.997 725.309 336.614 723.881 335.23C722.497 335.23 721.069 333.847 719.686 333.847C718.302 332.463 716.874 331.035 715.491 331.035H726.648C726.648 331.035 732.227 329.651 732.227 325.456C732.227 319.878 729.415 318.494 723.836 318.494C708.484 318.494 684.786 324.073 676.396 340.809L668.006 345.004L679.163 333.847L680.546 331.035C680.546 329.651 679.163 328.223 676.351 326.84H672.156C686.125 326.84 694.47 322.645 700.049 318.45C704.244 314.254 708.439 310.059 718.168 307.292C727.942 308.676 737.716 308.676 747.445 308.676C755.835 307.292 764.181 307.292 773.955 307.292C778.15 304.481 783.728 298.902 786.495 293.324L800.464 291.94C803.276 294.752 813.005 287.745 813.005 283.55C813.005 279.355 811.621 277.971 807.426 276.588C803.231 275.204 799.036 272.393 799.036 268.197V264.002C800.419 262.619 799.036 261.191 797.652 261.191C792.074 261.191 778.105 268.153 773.955 270.964C771.143 273.776 769.759 269.581 769.759 266.769L771.143 268.153L776.722 265.341L790.69 259.763L792.074 258.379C792.074 252.8 783.684 251.417 780.917 251.417C779.533 251.417 776.722 252.8 773.955 254.229C771.143 254.229 768.376 254.229 768.376 251.417L769.759 248.605C759.986 241.643 751.64 227.674 751.64 223.479V217.901C753.024 216.517 751.64 216.517 748.828 216.517H744.633C743.25 217.901 741.822 216.517 741.822 213.706C741.822 210.894 736.243 195.586 729.281 195.586L725.086 199.781C725.086 202.593 723.702 203.976 720.891 205.36C718.079 206.743 716.696 208.172 716.696 209.555H715.312L701.343 217.945C701.343 215.134 699.96 215.134 698.532 216.562C697.148 216.562 697.148 217.945 694.337 217.945H691.525C698.487 217.945 697.104 208.172 691.525 208.172L680.368 209.555C677.556 209.555 677.556 209.555 680.368 206.743C681.751 203.932 684.563 201.165 681.751 198.353C681.751 195.542 680.368 195.542 678.94 196.97L681.751 192.775C684.563 191.391 680.368 185.812 677.556 183.001L665.015 181.617L656.625 173.227C655.242 174.611 653.814 173.227 651.047 171.844C649.663 170.46 646.851 167.649 645.468 167.649L635.694 171.844L610.568 166.265C607.756 166.265 603.606 167.649 603.606 171.844C603.606 173.227 603.606 174.655 604.989 174.655C607.801 176.039 607.801 177.467 607.801 178.85C607.801 180.234 609.185 185.812 610.613 192.819C610.613 199.781 610.613 202.593 606.418 201.209L600.839 209.6C600.839 212.411 603.651 213.795 605.034 213.795C609.229 216.606 613.424 220.757 616.191 224.952C619.003 227.764 619.003 231.914 617.575 236.109L591.065 257.04V258.424C591.065 262.619 591.065 265.386 592.449 268.197C595.26 271.009 595.26 275.16 598.027 279.355C604.989 282.166 604.989 284.933 599.411 287.745C596.599 287.745 593.832 289.128 591.021 290.557L588.209 293.368C588.209 294.752 586.826 294.752 585.397 294.752H578.435C578.435 294.752 578.435 293.368 579.819 293.368C579.819 293.368 581.202 291.985 581.202 290.557L568.662 283.594L563.083 273.821C564.466 269.626 564.466 266.859 563.083 265.43C561.699 264.002 561.699 261.235 561.699 258.468C561.699 255.701 558.888 248.695 553.309 248.695C546.347 248.695 540.769 250.078 533.762 251.506C536.573 250.123 530.95 243.116 529.567 243.116C522.605 243.116 514.214 240.304 504.441 234.726C494.667 229.147 487.705 226.336 482.126 226.336C477.931 226.336 469.585 227.719 464.007 230.531C466.818 229.147 466.818 227.719 468.202 223.569L459.812 209.6L458.428 208.216C455.617 208.216 452.85 209.6 450.038 212.411C447.226 213.795 443.076 212.411 443.076 206.833C443.076 205.449 444.459 204.021 444.459 204.021C445.843 202.638 445.843 202.638 444.459 201.209C444.459 197.014 445.843 192.819 450.038 188.669C452.85 185.857 454.233 180.278 455.617 176.128C458.428 174.744 458.428 173.316 458.428 171.933C458.428 169.121 459.812 169.121 461.24 169.121C464.051 169.121 468.202 167.738 471.014 166.31C473.825 163.498 476.592 162.115 480.787 162.115L482.171 157.919C482.171 156.536 477.976 155.108 469.63 153.724C459.856 152.341 455.661 152.341 455.661 149.529L457.045 148.146C465.435 150.957 472.397 152.341 476.592 152.341C484.982 153.724 489.133 150.957 497.523 146.762C500.335 145.379 508.68 142.567 515.642 138.372C515.642 136.988 514.259 136.988 510.064 135.56H515.642L525.416 129.982V124.403L522.605 121.591L536.573 118.78C535.19 115.968 537.957 114.585 539.385 114.585C542.197 114.585 544.964 115.968 547.775 118.78C550.587 121.591 551.97 121.591 553.354 121.591L565.895 117.396C565.895 116.013 567.278 116.013 570.09 116.013C572.901 114.629 574.285 113.201 572.901 111.818L563.128 102.044C560.316 102.044 558.932 97.8489 561.744 97.8489C565.939 97.8489 568.706 96.4654 565.939 92.2703C563.128 90.8868 558.977 88.0751 554.782 86.6916C550.587 83.88 546.392 82.4965 542.241 82.4965C539.43 82.4965 533.851 83.88 533.851 88.0751C533.851 90.8868 535.235 90.8868 536.663 90.8868C539.474 90.8868 540.858 92.2703 540.858 93.6984C543.669 95.0819 542.241 96.51 539.474 96.51H536.663C533.851 96.51 529.701 99.3216 526.889 104.9C524.077 109.095 519.927 113.29 515.732 114.674C514.348 114.674 514.348 114.674 514.348 113.29C515.732 111.907 514.348 111.907 514.348 110.479C512.965 109.095 511.537 107.667 510.153 107.667C507.341 106.284 504.574 106.284 504.574 104.856C504.574 102.044 507.386 100.661 510.153 96.4654C511.537 92.2703 507.341 90.8868 500.379 90.8868C497.568 90.8868 494.801 92.2703 493.417 95.0819C492.034 96.4654 490.606 99.277 489.222 102.044L475.253 86.6916L464.096 85.3082C464.096 82.4965 465.48 79.7295 466.908 76.9179C469.719 71.3393 458.517 64.3772 454.367 60.1821C452.983 60.1821 450.172 58.7986 447.405 58.7986C446.021 58.7986 437.631 65.7607 432.052 68.5723C429.241 69.9558 427.857 71.3839 427.857 72.7674C427.857 75.5791 430.669 75.579 434.819 75.579H433.436C430.624 75.579 429.241 76.9625 429.241 81.1577C429.241 82.5412 440.398 85.3528 443.21 85.3528C446.021 85.3528 448.788 85.3528 448.788 86.7363C450.172 88.1198 450.172 88.1198 452.983 88.1198L457.179 86.7363V89.5479L455.795 92.3595L457.179 96.5546L443.21 103.517L441.826 104.9C440.443 104.9 439.015 104.9 439.015 106.284C439.015 107.667 439.015 110.479 441.826 113.246C443.21 116.057 441.826 117.441 434.864 117.441L430.669 114.629C430.669 111.818 427.857 109.051 420.895 106.239C408.355 102.044 386.04 100.661 366.493 100.661C356.719 99.277 349.757 99.277 344.178 99.277L323.247 106.239L328.826 117.396C327.442 117.396 324.631 118.78 324.631 118.78C319.052 114.585 310.662 106.239 307.895 106.239L298.121 104.856C267.416 106.239 231.178 135.56 196.323 170.415C161.467 205.271 130.763 244.321 115.41 268.064H118.222C121.034 268.064 122.417 266.68 126.612 265.252C129.424 263.868 130.807 266.635 130.807 270.831C130.807 273.642 130.807 275.026 129.424 277.793C128.04 280.56 130.807 281.988 136.386 281.988C137.769 281.988 139.198 280.604 139.198 277.793C140.581 274.981 140.581 274.981 140.581 277.793L143.393 287.566V288.95C143.393 290.333 142.009 291.761 140.581 293.145C136.386 294.528 140.581 298.724 144.776 298.724H151.738L154.55 297.34L155.933 295.957C155.933 301.535 161.512 302.919 165.707 302.919H167.091C167.091 302.919 165.707 305.73 164.279 307.114C161.467 307.114 161.467 308.497 164.279 309.925L178.248 312.737V314.121L186.638 332.24C186.638 335.052 183.826 342.014 181.059 342.014C178.293 342.014 178.248 340.63 178.248 339.202C179.631 339.202 179.631 337.819 179.631 335.007C179.631 333.623 178.248 332.195 178.248 330.812C176.864 329.428 174.053 329.428 168.474 329.428C167.091 329.428 162.896 329.428 165.663 333.623L172.625 348.976L175.436 351.787C167.046 351.787 165.663 379.68 165.663 388.071L167.046 399.228L168.43 403.423V404.807L167.046 417.347L183.782 445.24H187.977C187.977 446.624 187.977 448.052 186.593 449.435C185.21 450.819 185.21 452.247 185.21 455.014L190.789 459.209C190.789 467.599 193.6 468.983 200.562 475.945C200.562 480.14 206.141 485.719 214.531 491.297C224.305 495.492 229.884 498.259 232.651 499.688C238.229 519.235 248.003 540.121 261.927 552.707L263.311 561.097L260.499 563.909C257.687 563.909 257.687 565.292 259.115 566.72L270.273 572.299C273.084 569.487 274.468 572.299 277.235 576.494C280.046 582.073 281.43 584.884 282.813 586.268V590.463L289.776 600.236L292.587 603.048L295.399 596.086C292.587 589.124 282.858 573.772 274.468 561.231C270.273 554.269 266.078 547.262 261.927 541.683C259.115 537.488 257.732 534.721 257.732 533.293C257.732 531.865 256.348 516.557 254.92 513.746C256.304 515.129 260.499 516.557 263.311 517.941C267.506 519.324 271.701 520.752 274.468 522.136C275.851 533.293 280.046 541.683 287.009 548.645C292.587 554.224 298.166 561.186 302.361 569.576C299.549 572.388 305.172 572.388 307.939 572.388C309.323 575.2 309.323 576.583 309.323 582.162C321.864 594.703 346.99 624.024 346.99 636.564V637.948L344.178 646.338C349.757 658.879 362.297 668.653 374.883 672.848H377.694C384.657 677.043 394.43 681.238 404.204 685.388C412.594 690.967 420.94 695.162 429.33 697.929L443.299 689.539C450.261 690.922 458.651 697.929 468.425 706.275C478.199 714.62 490.74 724.394 507.475 727.206C513.054 723.011 515.866 724.394 515.866 730.017V732.829L531.218 750.948L534.03 759.339C542.42 764.917 552.149 773.307 556.344 783.037L556.478 783.215ZM376.579 81.6932L375.195 78.8816C372.384 77.4981 365.422 74.6865 362.655 74.6865C361.271 74.6865 358.459 76.07 352.881 77.4981C343.107 83.0767 327.755 87.2718 316.597 92.8504C311.019 95.6621 306.824 97.0456 304.057 97.0456C309.635 97.0456 315.214 95.6621 320.793 92.8504C324.988 90.0388 330.566 88.6553 336.145 88.6553L340.34 91.467C343.152 92.8505 344.535 92.8504 347.302 92.8504C348.686 92.8504 350.114 92.8504 352.881 95.6621C355.692 94.2786 358.459 94.2786 362.655 97.0456L366.85 94.2339V88.6553L365.466 85.8437L368.278 87.2272C371.089 87.2272 373.856 85.8437 376.668 81.6486L376.579 81.6932ZM587.138 898.938L588.521 907.328C588.521 910.14 587.138 910.14 585.71 912.907C581.515 915.718 574.553 919.869 574.553 928.259C574.553 929.642 575.936 931.071 575.936 933.838C577.32 935.221 578.748 936.649 578.748 939.416C578.748 940.8 577.364 942.228 577.364 943.611C673.584 926.875 760.075 880.863 827.018 809.725H825.635C822.823 811.108 818.673 811.108 817.245 809.725L813.05 811.108L806.087 809.725H801.892C799.081 805.529 796.314 802.763 792.119 799.951L790.735 798.567C789.352 798.567 787.923 798.567 787.923 801.379C787.923 788.838 778.15 777.681 766.992 777.681C766.992 779.065 765.609 779.065 765.609 779.065H762.797L759.986 777.681H764.181L766.992 769.291L760.03 765.096L758.647 766.479C753.068 765.096 748.873 762.284 746.106 756.705L741.911 755.322V756.705L739.099 758.089C733.521 759.472 729.326 760.901 726.559 762.284C720.98 760.901 716.785 758.089 715.401 756.705L698.666 758.089C698.666 752.51 695.854 745.548 688.892 745.548C680.502 745.548 669.344 745.548 666.577 755.322C666.577 758.134 667.961 762.284 669.389 763.712V769.291L668.006 772.102L666.622 773.486H665.239L661.043 763.712L665.239 758.134C663.855 755.322 663.855 753.938 663.855 751.171C663.855 748.404 662.472 746.976 662.472 744.209L661.088 742.826H656.893L648.503 748.405H642.924L641.541 751.216C640.157 751.216 640.157 752.6 640.157 754.028C640.157 754.028 638.774 754.028 638.774 755.411L637.39 754.028H631.811C629 756.839 627.616 760.99 626.233 765.185L629.044 767.997L622.082 770.808L620.699 773.62L616.504 776.431V777.815H615.12V784.777H613.737C612.353 779.198 608.158 773.62 599.768 769.425H595.573V772.236C595.573 775.048 598.384 776.431 601.151 777.815C603.963 780.627 605.347 783.394 606.73 784.777C605.347 783.394 602.535 784.777 602.535 786.161V788.972L610.925 801.513V825.211L613.737 830.789C610.925 837.752 608.158 844.758 603.963 848.909V847.525L601.151 848.909L599.768 850.292L598.384 855.871L599.768 857.254V858.638L596.956 855.826L595.573 864.217L588.611 867.028C585.799 868.412 584.416 869.84 585.799 873.99C585.799 876.802 584.416 878.185 581.604 879.569L582.987 882.38L580.176 886.576C580.176 887.959 580.176 889.387 578.792 889.387V894.966L580.176 904.74L582.987 906.123L585.799 904.74L587.138 898.938Z" fill="#2B2B2B"/>
</svg>
