<svg width="1000" height="1000" viewBox="0 0 1000 1000" fill="none" xmlns="http://www.w3.org/2000/svg">
<path d="M16.6667 33.3333H983.333C992.55 33.3333 1000 25.8833 1000 16.6667C1000 7.45 992.55 0 983.333 0H16.6667C7.46667 0 0 7.45 0 16.6667C0 25.8833 7.46667 33.3333 16.6667 33.3333Z" fill="#2B2B2B"/>
<path d="M983.333 966.667H950V750V716.667V200H783.333V716.667V750V966.667H766.667V750V716.667V550H600V716.667V750V966.667H583.333V750V716.667V366.667H416.667V716.667V750V966.667H400V750V716.667V466.667H233.333V716.667V750V966.667H216.667V750V716.667V633.333H50V716.667V750V966.667H16.6667C7.46667 966.667 0 974.117 0 983.333C0 992.55 7.46667 1000 16.6667 1000H50H216.667H233.333H400H416.667H583.333H600H766.667H783.333H950H983.333C992.55 1000 1000 992.55 1000 983.333C1000 974.117 992.55 966.667 983.333 966.667ZM83.3333 666.667H183.333V716.667H83.3333V666.667ZM83.3333 966.667V750H183.333V966.667H83.3333ZM266.667 500H366.667V716.667H266.667V500ZM266.667 966.667V750H366.667V966.667H266.667ZM450 400H550V716.667H450V400ZM450 966.667V750H550V966.667H450ZM633.333 583.333H733.333V716.667H633.333V583.333ZM633.333 966.667V750H733.333V966.667H633.333ZM816.667 233.333H916.667V716.667H816.667V233.333ZM816.667 966.667V750H916.667V966.667H816.667Z" fill="#2B2B2B"/>
<path d="M133.333 216.667H266.667C275.867 216.667 283.333 209.217 283.333 200C283.333 190.783 275.867 183.333 266.667 183.333H133.333C124.133 183.333 116.667 190.783 116.667 200C116.667 209.217 124.133 216.667 133.333 216.667Z" fill="#2B2B2B"/>
<path d="M38.1668 188.167C35.1668 191.167 33.3335 195.484 33.3335 200C33.3335 204.5 35.1668 208.667 38.1668 211.834C41.3335 214.834 45.6668 216.667 50.0002 216.667C54.3335 216.667 58.6668 214.834 61.8335 211.834C64.8335 208.667 66.6668 204.334 66.6668 200C66.6668 195.484 64.8335 191.317 61.8335 188.167C55.5002 182 44.3335 182 38.1668 188.167Z" fill="#2B2B2B"/>
<path d="M116.667 116.667C116.667 107.45 109.2 100 100 100H50.0002C40.8002 100 33.3335 107.45 33.3335 116.667C33.3335 125.883 40.8002 133.333 50.0002 133.333H100C109.2 133.333 116.667 125.883 116.667 116.667Z" fill="#2B2B2B"/>
<path d="M266.667 100H233.333C224.133 100 216.667 107.45 216.667 116.667C216.667 125.883 224.133 133.333 233.333 133.333H266.667C275.867 133.333 283.333 125.883 283.333 116.667C283.333 107.45 275.867 100 266.667 100Z" fill="#2B2B2B"/>
<path d="M178.5 128.5C181.5 125.334 183.333 121 183.333 116.667C183.333 112.334 181.5 107.984 178.5 104.834C172.167 98.6669 161.167 98.6669 154.833 104.834C151.833 107.984 150 112.334 150 116.667C150 121 151.833 125.334 154.833 128.5C158 131.5 162.333 133.334 166.667 133.334C171 133.334 175.333 131.5 178.5 128.5Z" fill="#2B2B2B"/>
</svg>
