<svg width="1001" height="1001" viewBox="0 0 1001 1001" fill="none" xmlns="http://www.w3.org/2000/svg">
<path d="M959.766 656.583H771.242V407.534L939.406 503.632C945.242 507.042 952.291 509.042 959.766 509.042C982.389 509.042 1000.75 490.681 1000.75 468.059C1000.75 452.911 992.52 439.698 980.324 432.583L980.127 432.485L556.127 190.222C568.357 189.763 579.996 188.124 591.209 185.37L590.029 185.6C599.57 183.731 610.553 182.681 621.799 182.681C633.701 182.681 645.307 183.862 656.52 186.157L655.406 185.96C657.406 186.321 659.701 186.518 662.061 186.518C684.684 186.518 703.045 168.157 703.045 145.534V53.3372C703.045 33.9274 689.537 17.6651 671.438 13.4356L671.176 13.37C656.324 9.53396 639.275 7.30445 621.701 7.30445C603.963 7.30445 586.717 9.56674 570.291 13.7963L571.701 13.4684C563.373 15.4028 553.799 16.5176 543.996 16.5176C539.734 16.5176 535.504 16.3208 531.34 15.8946L531.865 15.9274C524.488 6.74707 513.307 0.878218 500.783 0.74707C478.16 0.74707 459.766 19.1077 459.766 41.7307V181.895L21.4057 432.386C8.97951 439.567 0.75 452.813 0.75 467.96C0.75 490.583 19.1107 508.944 41.7336 508.944C49.209 508.944 56.2254 506.944 62.2582 503.436L62.0615 503.534L230.258 407.436V656.485H41.7336C19.1107 656.485 0.75 674.845 0.75 697.468V959.763C0.75 982.386 19.1107 1000.75 41.7336 1000.75H959.766C982.389 1000.71 1000.72 982.386 1000.75 959.763V697.468C1000.72 674.845 982.389 656.518 959.766 656.485V656.583ZM592.258 92.8782C600.324 90.6159 609.57 89.3044 619.111 89.3044C619.799 89.3044 620.488 89.3044 621.176 89.3372H621.078V100.878C602.881 101.206 585.34 103.108 568.357 106.485L570.258 106.19C561.799 108.681 552.094 110.091 542.061 110.091C542.029 110.091 541.996 110.091 541.963 110.091H541.734V99.0749C559.668 99.0749 577.078 96.8126 593.734 92.6159L592.258 92.9438V92.8782ZM82.7172 738.55H230.258V918.878H82.7172V738.55ZM312.225 697.567V360.682L500.75 252.944L689.275 360.682V918.878H640.094V763.14C640.061 740.518 621.734 722.19 599.111 722.157H402.389C379.766 722.157 361.406 740.518 361.406 763.14V918.878H312.225V697.567ZM443.373 918.878V804.124H558.127V918.878H443.373ZM918.783 918.878H771.242V738.55H918.783V918.878ZM500.75 640.19C577.701 640.19 640.094 577.796 640.094 500.845C640.094 423.895 577.701 361.501 500.75 361.501C423.799 361.501 361.406 423.895 361.406 500.845C361.471 577.763 423.832 640.091 500.75 640.19ZM500.75 443.468C532.422 443.468 558.127 469.173 558.127 500.845C558.127 532.518 532.422 558.222 500.75 558.222C469.078 558.222 443.373 532.518 443.373 500.845C443.406 469.173 469.078 443.501 500.75 443.468Z" fill="#2B2B2B"/>
</svg>
