<svg width="1000" height="1737" viewBox="0 0 1000 1737" fill="none" xmlns="http://www.w3.org/2000/svg">
<path d="M853.554 146.446C763.323 56.0548 637.86 -0.0542149 500 3.931e-05C362.14 -0.0542149 236.677 56.0548 146.446 146.446C56.1091 236.728 -0.0508093 362.137 5.40421e-05 500C-0.0542002 617.464 40.7449 726.023 108.773 811.273C128.8 836.495 146.127 857.42 159.955 875.381C170.341 888.84 178.764 900.603 185.441 911.304C195.454 927.411 201.548 940.71 206.051 956.658C210.449 972.659 213.151 992.157 213.202 1019.71C213.202 1038.25 215.267 1056.32 220.462 1074.07C224.331 1087.31 230.106 1100.45 238.264 1112.53C250.292 1130.76 268.148 1146.07 287.751 1155.13C307.303 1164.3 327.699 1167.64 346.722 1167.64H653.333C670.233 1167.64 688.194 1164.99 705.786 1157.94C718.926 1152.7 731.747 1144.86 742.662 1134.79C759.193 1119.74 770.796 1100.4 777.524 1080.7C784.306 1060.88 786.849 1040.59 786.849 1019.71C786.849 995.236 789.022 977.064 792.573 962.174C798.083 939.92 806.136 923.39 821.873 900.237C837.502 877.294 861.133 849.109 891.332 811.28C959.309 726.03 1000.05 617.416 1000 500.007C1000.05 362.137 943.887 236.728 853.554 146.446ZM779.853 722.473C760.62 746.528 743.296 767.561 727.24 788.276C715.267 803.854 703.982 819.323 693.65 835.854C678.232 860.543 665.092 887.989 656.615 918.72C648.138 949.452 644.323 982.669 644.323 1019.7C644.323 1021.72 644.269 1023.52 644.164 1025.11H355.938C355.833 1023.52 355.724 1021.77 355.724 1019.7C355.724 986.748 352.757 956.868 346.03 928.998C336.176 887.09 317.577 851.272 295.75 819.642C273.763 787.747 248.912 758.606 220.248 722.473C171.504 661.277 142.577 584.348 142.522 500C142.577 401.081 182.42 312.175 247.27 247.219C312.175 182.42 401.03 142.522 500 142.522C598.97 142.522 687.876 182.42 752.78 247.216C817.577 312.172 857.42 401.078 857.474 499.997C857.42 584.399 828.492 661.328 779.853 722.473Z" fill="#2B2B2B"/>
<path d="M500 1736.13C559.021 1736.13 606.918 1688.29 606.918 1629.22H393.078C393.082 1688.29 440.978 1736.13 500 1736.13Z" fill="#2B2B2B"/>
<path d="M683.268 1252.51H316.788C284.893 1252.51 259.088 1278.31 259.088 1310.15C259.088 1342.05 284.89 1367.85 316.788 1367.85H683.268C715.112 1367.85 740.967 1342.05 740.967 1310.15C740.967 1278.31 715.112 1252.51 683.268 1252.51Z" fill="#2B2B2B"/>
<path d="M683.268 1438.74H316.788C284.893 1438.74 259.088 1464.54 259.088 1496.44C259.088 1528.29 284.89 1554.09 316.788 1554.09H683.268C715.112 1554.09 740.967 1528.29 740.967 1496.44C740.967 1464.54 715.112 1438.74 683.268 1438.74Z" fill="#2B2B2B"/>
</svg>
