<svg width="30" height="30" viewBox="0 0 30 30" fill="none" xmlns="http://www.w3.org/2000/svg">
<path d="M11.4415 6.76048C13.0248 3.92016 13.8164 2.5 15 2.5C16.1836 2.5 16.9753 3.92015 18.5585 6.76046L18.9681 7.49529C19.4181 8.30241 19.643 8.70599 19.9939 8.97226C20.3446 9.23854 20.7814 9.33737 21.6551 9.53506L22.4506 9.71504C25.5251 10.4107 27.0625 10.7585 27.4283 11.9347C27.794 13.1108 26.746 14.3364 24.6499 16.7874L24.1076 17.4215C23.512 18.118 23.2141 18.4662 23.0801 18.8971C22.9463 19.328 22.9913 19.7926 23.0813 20.722L23.1633 21.568C23.4801 24.8383 23.6386 26.4734 22.6811 27.2003C21.7235 27.9271 20.2841 27.2644 17.4054 25.939L16.6606 25.596C15.8426 25.2194 15.4336 25.031 15 25.031C14.5664 25.031 14.1574 25.2194 13.3394 25.596L12.5946 25.939C9.71585 27.2644 8.27648 27.9271 7.31894 27.2003C6.3614 26.4734 6.51985 24.8383 6.83675 21.568L6.91873 20.722C7.00879 19.7926 7.05381 19.328 6.91983 18.8971C6.78585 18.4662 6.48804 18.118 5.8924 17.4215L5.35013 16.7874C3.25406 14.3364 2.20603 13.1108 2.57178 11.9347C2.93753 10.7585 4.47483 10.4107 7.54943 9.71504L8.34486 9.53506C9.21856 9.33737 9.65542 9.23854 10.0062 8.97226C10.3569 8.70599 10.5819 8.30243 11.0318 7.49529L11.4415 6.76048Z" fill="#3C88AF"/>
</svg>
