<svg width="500" height="500" viewBox="0 0 500 500" fill="none" xmlns="http://www.w3.org/2000/svg">
<g clip-path="url(#clip0_2_3)">
<g clip-path="url(#clip1_2_3)">
<path d="M76.3933 104.206C76.4141 100.823 76.4159 97.4395 76.3987 94.0561C76.3669 86.3812 76.6213 79.8421 82.429 74.0872C85.1292 71.4114 88.6101 69.242 92.3401 68.3709C97.4461 67.179 108.877 67.8172 114.58 67.8265C126.731 67.8465 138.902 67.7225 151.05 67.8973C155.428 67.9603 160.354 70.118 163.408 73.2767C167.669 77.6849 171.193 84.6127 174.466 89.9164C179.698 98.3954 185.984 112.108 190.5 121C188.91 122.336 188.5 130 185.135 119.977C182.011 113.888 178.276 109.092 173.337 104.384C171.365 99.5439 160.866 82.0643 157.447 78.9359C155.897 77.5174 153.413 76.3846 151.36 76.0506C146.477 75.2552 137.386 75.7982 132.192 75.807C121.528 75.825 110.814 75.5428 100.157 75.8582C95.5887 75.9935 91.2786 76.6507 88.0506 80.2289C83.9051 84.8241 84.7151 92.475 85.1048 98.2177C81.9519 99.8417 79.1023 101.924 76.3933 104.206Z" fill="#000C26"/>
<path d="M85.1047 98.2177C84.7151 92.475 83.905 84.8241 88.0505 80.2288C91.2786 76.6507 95.5886 75.9935 100.157 75.8582C110.814 75.5428 121.528 75.825 132.192 75.8069C137.386 75.7982 146.477 75.2552 151.36 76.0506C153.413 76.3846 155.896 77.5174 157.447 78.9359C160.866 82.0643 171.365 99.5438 173.336 104.384C163.81 97.7294 154.999 93.9843 143.094 95.5448C135.662 96.5189 129.336 99.5204 124.703 105.507C121.955 102.045 119.134 99.6 115.075 97.7606C104.918 93.1566 95.2698 94.391 85.1047 98.2177Z" fill="#5E94C7"/>
<path d="M76.0319 260.834C77.0866 261.687 78.57 265.584 79.5847 267.099C80.9562 269.147 82.5676 270.887 84.3855 272.542L84.4318 272.683L84.4411 370.324L84.4294 400.344C84.4245 405.202 83.9387 410.592 84.6042 415.388C84.8972 417.501 86.0344 419.584 87.5549 421.065C88.9885 422.46 90.9485 423.627 92.9451 423.944C95.342 424.324 97.968 424.149 100.398 424.158L113.464 424.198L136.097 424.227C140.776 424.243 145.493 424.386 150.169 424.208C153.457 424.082 156.638 423.289 158.947 420.776C160.295 419.309 161.468 417.382 161.773 415.387C162.428 411.11 162.087 406.428 162.079 402.1L162.042 379.912L162.036 335.618C162.014 327.594 162.157 319.485 161.833 311.47C162.156 308.985 162.18 305.652 161.763 303.184C162.16 300.354 161.887 297.112 161.881 294.252C161.848 288.271 161.852 282.291 161.891 276.31C165.324 274.102 168.23 271.27 171.084 268.38C170.815 269.017 170.567 269.665 170.487 270.356C170.088 273.785 170.389 277.538 170.391 281.001C170.394 287.064 170.297 293.145 170.407 299.206C170.167 299.206 168.133 269.319 175 269C175.765 270.226 191.525 297.138 192.195 298.42C194.898 302.352 176.052 269.897 178.5 274C179.838 276.242 188.164 277.083 189 279.5C184.35 289.586 170.749 266.843 170.453 270.665C169.744 279.809 170.407 299.206 170.374 373.774L170.373 378.693L170.354 378.959C169.834 387.041 170.357 396.884 170.387 405.178C170.402 409.637 170.732 414.492 169.589 418.835C169.47 419.29 169.334 419.74 169.181 420.184C169.028 420.629 168.86 421.067 168.675 421.5C168.49 421.932 168.29 422.357 168.074 422.774C167.858 423.192 167.627 423.601 167.381 424.002C167.136 424.402 166.875 424.793 166.601 425.175C166.326 425.556 166.038 425.927 165.736 426.288C165.434 426.648 165.119 426.997 164.792 427.334C164.464 427.671 164.125 427.996 163.773 428.309C161.706 430.142 158.896 431.819 156.171 432.397C151.364 433.418 146.205 433.096 141.312 433.084L123.607 433.042L105.818 433.112C101.844 433.136 97.8206 433.283 93.8538 433.014C88.615 432.66 84.134 430.406 80.6657 426.459C75.3229 420.378 76.154 415.844 75.7082 408.482C75.6769 407.262 75.7258 406.038 75.7516 404.817C76.0705 402.032 75.8356 399.001 75.8459 396.176L75.8332 377.019L75.7458 321.418C75.6716 320.165 75.7355 318.891 75.7531 317.636C76.3029 315.641 75.8029 311.573 75.818 309.355L75.7228 277.86C75.7106 274.425 75.1633 263.349 76.0319 260.834Z" fill="#000C26"/>
<path d="M317.415 112.097C322.181 104.07 326.333 95.5737 330.774 87.3559C333.057 83.1298 335.146 78.4535 338.353 74.8446C341.147 71.7006 344.869 69.2074 348.97 68.162C353.514 67.0033 359.18 67.5956 363.85 67.6039L385.653 67.6429L399.487 67.6063C402.376 67.597 405.332 67.4461 408.204 67.7865C408.885 67.8636 409.56 67.9766 410.229 68.1253C410.898 68.2744 411.557 68.4585 412.206 68.6776C412.855 68.897 413.491 69.1501 414.113 69.4369C414.736 69.724 415.341 70.0433 415.929 70.3949C420.213 72.9881 423.715 77.5536 424.848 82.4579C425.907 87.0448 425.472 92.0956 425.436 96.7812L425.336 114.139L425.27 195.896L425.253 199.793L425.51 310.627L425.535 314.103C425.537 328.33 425.203 342.639 425.557 356.857L425.557 360.904C425.781 362.942 425.61 365.179 425.613 367.236L425.608 380.008C425.593 391.343 425.875 402.752 425.571 414.077C425.426 419.475 423.372 424.275 419.423 428C419.123 428.289 418.813 428.566 418.493 428.832C418.173 429.098 417.844 429.353 417.505 429.596C417.167 429.839 416.821 430.069 416.466 430.287C416.112 430.505 415.75 430.711 415.381 430.903C415.012 431.095 414.636 431.274 414.254 431.44C413.872 431.606 413.485 431.758 413.092 431.896C412.699 432.034 412.302 432.158 411.9 432.268C411.499 432.377 411.094 432.473 410.686 432.554C407.286 433.231 403.586 433.012 400.131 433.004L386.083 432.957C375.917 432.931 365.674 433.316 355.519 433.011C349.637 432.834 344.574 431.244 340.473 426.839C338.328 424.534 336.596 421.439 335.997 418.332C335.232 414.369 335.448 410.161 335.45 406.142L335.449 391.117C335.449 375.605 335.103 360.003 335.543 344.502L337.931 345.863C337.93 344.48 335.404 354.883 335.368 353.5L335.479 340.289C334.5 254.5 338.756 262.352 332 259C329 264.5 334 255.5 297.024 321.334L295.293 324.722C291.701 331.632 287.61 338.347 283.803 345.148C281.042 350.079 278.608 355.618 275.1 360.053C272.897 362.837 270.114 365.217 267.104 367.089C260.748 371.044 252.335 372.799 244.986 371.06C240.492 369.995 236.063 367.532 232.778 364.289C228.949 360.512 226.377 355.435 223.571 350.882C217.713 341.374 212.218 331.656 206.369 322.141L203.972 318.302C203.135 315.885 200.926 313.068 199.587 310.826C197.139 306.723 194.898 302.352 192.195 298.42C191.525 297.138 190.75 295.924 189.985 294.698C172.5 272 176.659 270.731 170.487 274C170.377 267.939 170.394 287.064 170.391 281.001C170.389 277.538 170.088 273.785 170.487 270.356C170.567 269.665 170.816 269.017 171.084 268.38L172.412 266.552C174.067 264.145 175.122 261.526 176.638 259.083C176.959 258.565 176.985 258.533 177.549 258.396C177.6 258.449 177.652 258.502 177.702 258.556C179.798 260.854 181.381 264.113 182.998 266.793L191.695 281.193L226.732 339.435L232.931 349.682C234.577 352.414 236.037 355.562 238.327 357.818C241.463 360.909 245.325 362.38 249.677 362.644C255.744 363.011 261.485 360.834 265.996 356.795C266.957 355.919 267.856 354.983 268.693 353.988C269.53 352.993 270.298 351.947 270.997 350.85C273.868 346.419 276.201 341.554 278.805 336.955L296.704 305.381C305.057 290.732 313.325 276.034 321.507 261.289C329.232 247.52 337.142 233.832 343.663 219.435C343.873 230.049 343.596 240.687 343.605 251.304L343.739 311.195L343.719 335.466C343.717 338.506 344.131 343.113 343.56 345.921C343.67 356.229 343.488 353.496 343.67 356.229C343.873 359.28 343.67 356.229 343.67 363.207C343.995 375.424 343.753 387.703 343.733 399.926C343.725 404.651 343.192 411.898 344.026 416.338C344.512 418.927 346.122 421.106 348.299 422.56C349.982 423.685 351.815 423.999 353.788 424.162C357.372 424.458 361.093 424.256 364.689 424.246L385.371 424.187C389.751 424.185 394.132 424.208 398.512 424.257C401.921 424.29 405.777 424.685 409.104 423.921C409.274 423.883 409.443 423.841 409.611 423.795C409.779 423.749 409.945 423.699 410.111 423.644C410.276 423.589 410.44 423.531 410.603 423.468C410.765 423.405 410.926 423.339 411.085 423.268C411.244 423.197 411.401 423.122 411.557 423.044C411.712 422.965 411.865 422.883 412.017 422.797C412.168 422.71 412.317 422.62 412.463 422.526C412.61 422.432 412.755 422.335 412.896 422.234C413.038 422.133 413.177 422.028 413.314 421.92C413.45 421.812 413.584 421.701 413.715 421.586C413.846 421.471 413.974 421.353 414.099 421.232C414.224 421.111 414.346 420.987 414.465 420.859C414.584 420.732 414.699 420.602 414.812 420.469C414.924 420.336 415.033 420.2 415.138 420.061C415.244 419.923 415.346 419.782 415.444 419.638C415.543 419.494 415.637 419.348 415.729 419.2C416.259 418.335 416.584 417.432 416.792 416.441C417.505 413.044 417.143 409.03 417.152 405.559L417.142 384.744L417.03 309.199L417.18 140.433L417.185 103.915C417.191 98.9526 417.834 88.9238 416.734 84.5849C415.985 81.6278 414.106 79.0419 411.413 77.5673C409.894 76.7357 408.215 76.3041 406.495 76.1664C404.068 75.9721 401.548 76.1459 399.109 76.1493L383.834 76.1581L364.13 76.1595C360.821 76.1542 357.472 75.9935 354.168 76.1512C352.857 76.2142 351.534 76.4091 350.281 76.8094C348.009 77.535 346.025 79.2064 344.513 81.0243C341.063 85.1737 338.759 90.6782 336.244 95.4487C333.148 101.323 329.932 107.125 326.937 113.052C323.728 112.619 320.644 112.385 317.415 112.097Z" fill="#000C26"/>
<path d="M125.068 270.811C129.594 276.442 135.181 279.979 142.457 280.789C149.616 281.586 155.532 279.267 161.891 276.31C161.852 282.291 161.848 288.271 161.881 294.252C161.887 297.112 162.16 300.354 161.763 303.184C162.18 305.652 162.156 308.985 161.834 311.47C162.157 319.485 162.014 327.595 162.036 335.618L162.043 379.912L162.079 402.1C162.087 406.428 162.428 411.11 161.773 415.387C161.468 417.382 160.296 419.309 158.947 420.776C156.638 423.289 153.457 424.082 150.169 424.208C145.493 424.386 140.776 424.243 136.097 424.227L113.464 424.198L100.398 424.158C97.9682 424.149 95.3422 424.324 92.9453 423.944C90.9487 423.627 88.9887 422.46 87.5551 421.065C86.0346 419.584 84.8974 417.501 84.6044 415.388C83.9389 410.592 84.4247 405.202 84.4296 400.344L84.4413 370.324L84.432 272.683C86.8388 274.123 89.0488 275.857 91.5048 277.229C91.8811 277.442 92.2621 277.645 92.6479 277.84C93.034 278.035 93.4243 278.221 93.8188 278.397C94.2133 278.574 94.6119 278.741 95.0146 278.898C95.4173 279.056 95.8234 279.204 96.2329 279.342C96.6424 279.48 97.055 279.609 97.4707 279.728C97.886 279.847 98.3042 279.955 98.7251 280.054C99.146 280.153 99.5688 280.242 99.9936 280.321C100.419 280.401 100.846 280.469 101.274 280.528C101.702 280.587 102.131 280.636 102.562 280.674C102.993 280.713 103.424 280.741 103.855 280.759C104.287 280.777 104.72 280.785 105.152 280.783C105.584 280.78 106.016 280.768 106.448 280.745C106.879 280.722 107.31 280.689 107.741 280.646C108.171 280.603 108.599 280.549 109.027 280.486C109.455 280.423 109.881 280.349 110.305 280.265C110.729 280.182 111.151 280.088 111.57 279.985C117.191 278.577 121.688 275.496 125.068 270.811Z" fill="#5E94C7"/>
<path d="M119.338 339.551L121.775 339.676C122.283 343.46 121.879 347.793 121.874 351.625C121.815 360.171 121.841 368.717 121.95 377.262L119.241 377.104C119.169 364.586 119.201 352.068 119.338 339.551Z" fill="#3C88AF"/>
<path d="M161.763 303.184C162.18 305.652 162.156 308.985 161.834 311.47C156.694 318.873 150.539 325.218 141.255 326.849C138.461 327.339 135.622 327.237 132.799 327.181C132.579 325.713 132.244 324.408 131.751 323.009C136.014 323.479 140.364 323.597 144.45 322.122C153.331 318.916 157.898 311.29 161.763 303.184Z" fill="#FFF7FA"/>
<path d="M119.338 339.551C116.658 338.732 114.281 337.677 112.425 335.478C110.41 333.094 109.547 329.824 109.889 326.74C109.909 326.557 109.934 326.373 109.963 326.191C109.993 326.009 110.026 325.827 110.065 325.646C110.103 325.465 110.146 325.285 110.193 325.107C110.24 324.928 110.292 324.751 110.349 324.574C110.405 324.398 110.465 324.224 110.53 324.051C110.594 323.877 110.663 323.706 110.736 323.536C110.809 323.366 110.887 323.198 110.969 323.032C111.05 322.866 111.135 322.703 111.225 322.541C111.315 322.379 111.408 322.22 111.506 322.063C111.603 321.906 111.705 321.751 111.81 321.599C111.915 321.448 112.025 321.298 112.137 321.152C112.249 321.005 112.365 320.861 112.485 320.72C112.605 320.58 112.728 320.442 112.855 320.307C112.982 320.173 113.111 320.041 113.245 319.913C113.377 319.784 113.513 319.659 113.653 319.538C113.792 319.416 113.934 319.298 114.08 319.184C114.231 319.063 114.385 318.947 114.541 318.834C114.698 318.721 114.858 318.612 115.02 318.508C115.183 318.403 115.348 318.302 115.516 318.206C115.683 318.109 115.853 318.017 116.025 317.929C116.197 317.842 116.371 317.758 116.548 317.679C116.724 317.6 116.902 317.525 117.082 317.455C117.263 317.385 117.445 317.319 117.628 317.259C117.811 317.198 117.996 317.141 118.183 317.09C118.369 317.038 118.556 316.991 118.745 316.949C118.934 316.907 119.123 316.87 119.314 316.837C119.504 316.805 119.695 316.777 119.887 316.754C120.079 316.731 120.272 316.713 120.464 316.7C120.657 316.687 120.85 316.678 121.043 316.675C121.237 316.671 121.43 316.673 121.623 316.679C121.817 316.685 122.009 316.696 122.202 316.712C122.395 316.728 122.587 316.749 122.778 316.775C126.888 317.352 129.394 319.862 131.751 323.009C132.244 324.408 132.579 325.713 132.799 327.181C132.496 330.845 131.853 334.228 128.884 336.746C126.813 338.504 124.369 339.16 121.775 339.676L119.338 339.551Z" fill="#524FD1"/>
<path d="M118.196 377.491C120.764 377.218 123.285 377.463 125.635 378.61C128.455 379.986 130.496 382.435 131.453 385.412C131.518 385.609 131.578 385.809 131.633 386.01C131.688 386.211 131.737 386.413 131.782 386.617C131.826 386.82 131.866 387.025 131.9 387.23C131.934 387.436 131.963 387.643 131.986 387.85C132.01 388.057 132.028 388.264 132.041 388.472C132.054 388.68 132.062 388.888 132.064 389.096C132.066 389.305 132.063 389.513 132.055 389.721C132.047 389.929 132.034 390.137 132.015 390.345C131.996 390.552 131.972 390.759 131.942 390.965C131.913 391.171 131.878 391.377 131.838 391.582C131.799 391.786 131.754 391.989 131.703 392.191C131.653 392.394 131.598 392.594 131.537 392.794C131.477 392.993 131.411 393.191 131.341 393.387C131.27 393.583 131.195 393.777 131.114 393.969C131.034 394.162 130.949 394.352 130.858 394.54C130.768 394.727 130.673 394.913 130.574 395.096C128.844 398.228 126.117 399.895 122.776 400.868C119.932 401.292 117.25 401.164 114.647 399.786C111.758 398.257 109.7 395.55 108.85 392.408C108.797 392.21 108.748 392.012 108.705 391.812C108.661 391.612 108.623 391.412 108.59 391.21C108.557 391.008 108.529 390.806 108.506 390.603C108.484 390.399 108.466 390.196 108.453 389.992C108.441 389.788 108.434 389.584 108.432 389.379C108.429 389.175 108.432 388.971 108.441 388.766C108.449 388.562 108.463 388.358 108.481 388.155C108.5 387.951 108.524 387.748 108.553 387.546C108.582 387.343 108.616 387.142 108.655 386.941C108.695 386.741 108.739 386.541 108.789 386.343C108.838 386.144 108.892 385.948 108.952 385.752C109.011 385.556 109.076 385.362 109.145 385.17C109.214 384.978 109.289 384.788 109.368 384.599C109.447 384.411 109.53 384.224 109.619 384.04C109.707 383.855 109.8 383.673 109.898 383.494C109.996 383.315 110.098 383.138 110.205 382.963C112.073 379.898 114.82 378.357 118.196 377.491Z" fill="#524FD1"/>
<path d="M326.937 113.052C329.932 107.125 333.148 101.323 336.244 95.4486C338.759 90.6781 341.063 85.1737 344.513 81.0243C346.025 79.2064 348.008 77.535 350.28 76.8094C351.534 76.409 352.857 76.2142 354.168 76.1512C357.472 75.9935 360.821 76.1541 364.13 76.1595L383.834 76.158L399.109 76.1492C401.548 76.1458 404.068 75.972 406.495 76.1663C408.215 76.304 409.893 76.7357 411.412 77.5672C414.106 79.0418 415.985 81.6278 416.734 84.5848C417.834 88.9237 417.191 98.9525 417.185 103.914L417.18 140.433L417.03 309.199L417.141 384.744L417.152 405.559C417.143 409.03 417.505 413.044 416.792 416.441C416.583 417.432 416.259 418.335 415.728 419.2C415.637 419.348 415.543 419.494 415.444 419.638C415.346 419.782 415.244 419.923 415.139 420.061C415.033 420.2 414.924 420.336 414.811 420.469C414.699 420.602 414.584 420.732 414.465 420.859C414.346 420.987 414.224 421.111 414.099 421.232C413.974 421.353 413.846 421.471 413.715 421.586C413.584 421.701 413.45 421.812 413.314 421.92C413.177 422.028 413.038 422.133 412.896 422.233C412.754 422.335 412.61 422.432 412.463 422.526C412.316 422.62 412.167 422.71 412.016 422.796C411.865 422.883 411.712 422.965 411.556 423.044C411.401 423.122 411.244 423.197 411.085 423.268C410.926 423.339 410.765 423.405 410.602 423.468C410.44 423.531 410.276 423.589 410.111 423.644C409.945 423.698 409.779 423.749 409.611 423.795C409.443 423.841 409.274 423.883 409.104 423.92C405.777 424.685 401.921 424.29 398.512 424.256C394.131 424.208 389.751 424.185 385.37 424.187L364.689 424.246C361.092 424.256 357.372 424.458 353.788 424.162C351.815 423.999 349.982 423.685 348.299 422.56C346.122 421.106 344.512 418.927 344.025 416.338C343.192 411.897 343.725 404.651 343.733 399.926C343.753 387.703 343.995 375.424 343.67 363.207C343.711 363.27 343.753 363.331 343.794 363.394C345.293 365.729 346.129 368.496 347.311 370.997C350.709 378.192 356.403 383.831 364.318 385.616C367.504 386.335 370.703 386.259 373.946 386.224C374.335 384.818 374.863 383.652 375.697 382.451C376.227 382.245 376.745 381.752 377.214 381.414C379.065 380.082 380.671 379.173 382.968 378.834L386.166 378.841C386.144 358.53 386.569 338.119 386.026 317.82C387.384 317.515 388.716 317.183 389.954 316.522C392.982 314.908 395.095 312.149 395.966 308.838C396.019 308.641 396.067 308.443 396.11 308.244C396.153 308.045 396.191 307.845 396.223 307.644C396.256 307.443 396.284 307.241 396.306 307.039C396.328 306.836 396.345 306.633 396.357 306.43C396.369 306.227 396.375 306.023 396.377 305.819C396.378 305.616 396.374 305.412 396.365 305.209C396.355 305.005 396.341 304.802 396.321 304.599C396.301 304.397 396.276 304.195 396.246 303.993C396.216 303.792 396.181 303.591 396.14 303.392C396.1 303.192 396.054 302.994 396.003 302.797C395.952 302.599 395.897 302.403 395.836 302.209C395.775 302.015 395.709 301.822 395.638 301.631C395.567 301.44 395.492 301.251 395.411 301.064C395.33 300.877 395.245 300.692 395.155 300.509C395.064 300.327 394.97 300.147 394.87 299.969C394.771 299.791 394.667 299.616 394.558 299.444C392.59 296.312 389.706 294.769 386.23 293.906C385.945 284.699 386.169 275.426 386.158 266.212L385.965 220.106C384.931 220.097 383.887 220 382.854 219.94C380.296 219.329 378.033 218.047 376.313 216.036C376.188 215.891 376.067 215.742 375.949 215.59C375.832 215.437 375.718 215.282 375.609 215.125C375.499 214.967 375.394 214.807 375.292 214.644C375.191 214.481 375.093 214.315 375 214.147C374.907 213.979 374.818 213.809 374.733 213.637C374.648 213.464 374.568 213.29 374.492 213.114C374.416 212.938 374.344 212.759 374.277 212.579C374.21 212.399 374.148 212.218 374.09 212.034C374.032 211.852 373.978 211.667 373.929 211.481C373.881 211.296 373.836 211.109 373.797 210.921C373.758 210.733 373.723 210.544 373.693 210.354C373.663 210.165 373.638 209.974 373.618 209.783C373.597 209.592 373.582 209.401 373.571 209.209C373.56 209.017 373.554 208.825 373.553 208.633C373.552 208.441 373.556 208.249 373.564 208.057C373.573 207.865 373.586 207.674 373.604 207.483C373.936 203.643 375.893 201.275 378.725 198.908C374.972 193.963 370.955 189.253 367.024 184.451C364.001 180.759 361.091 176.976 358.063 173.287C355.402 174.057 353.306 174.218 350.55 173.72C349.231 173.374 348.091 172.728 346.926 172.046C345.485 170.825 344.352 169.609 343.457 167.926C343.365 167.755 343.277 167.581 343.193 167.406C343.11 167.23 343.031 167.053 342.957 166.873C342.882 166.694 342.813 166.513 342.748 166.329C342.682 166.146 342.622 165.962 342.566 165.776C342.51 165.589 342.459 165.402 342.412 165.213C342.366 165.025 342.324 164.835 342.288 164.644C342.251 164.453 342.219 164.261 342.192 164.069C342.164 163.877 342.142 163.684 342.125 163.49C342.108 163.297 342.095 163.103 342.088 162.908C342.08 162.714 342.077 162.52 342.08 162.325C342.082 162.131 342.089 161.937 342.101 161.743C342.113 161.549 342.13 161.356 342.152 161.162C342.174 160.969 342.2 160.777 342.232 160.585C342.264 160.393 342.3 160.203 342.341 160.013C342.383 159.823 342.429 159.634 342.48 159.446C342.53 159.259 342.586 159.073 342.646 158.888C343.824 155.173 346.267 153.228 349.569 151.511C349.225 150.136 349.371 148.412 349.32 146.988C349.165 142.607 348.413 138.615 346.576 134.6C342.202 125.042 334.011 121.068 324.635 117.637C321.378 117.308 318.284 116.528 314.975 116.332L314.086 116.113C314.655 114.64 315.547 113.389 316.549 112.186L317.415 112.097C320.644 112.385 323.728 112.619 326.937 113.052Z" fill="#5E94C7"/>
<path d="M360.892 171.515C363.583 175.377 366.804 178.936 369.744 182.615C373.762 187.642 377.611 192.842 381.97 197.584C380.898 198.075 379.855 198.562 378.725 198.909C374.972 193.963 370.955 189.253 367.024 184.451C364.001 180.759 361.091 176.976 358.063 173.287C359.077 172.756 359.992 172.236 360.892 171.515Z" fill="#FFF7FA"/>
<path d="M376.7 122.472C377.875 123.353 379.022 124.157 380.306 124.874C378.952 128.093 377.601 131.273 375.897 134.329C373.129 139.294 365.334 150.758 360.733 153.677C359.752 152.866 358.741 152.256 357.639 151.635C365.404 142.577 372.958 134.149 376.7 122.472Z" fill="#3C88AF"/>
<path d="M382.968 378.834L386.166 378.841C389.313 379.091 392.131 380.25 394.206 382.722C396.127 385.011 397.094 388.387 396.823 391.35C396.805 391.537 396.783 391.724 396.756 391.91C396.729 392.096 396.697 392.281 396.66 392.466C396.624 392.65 396.583 392.834 396.537 393.017C396.492 393.199 396.442 393.381 396.387 393.561C396.332 393.741 396.273 393.919 396.209 394.096C396.145 394.273 396.076 394.448 396.004 394.622C395.931 394.795 395.854 394.967 395.772 395.136C395.691 395.306 395.605 395.473 395.515 395.639C395.426 395.804 395.332 395.967 395.234 396.128C395.136 396.288 395.034 396.446 394.928 396.601C394.821 396.756 394.711 396.909 394.597 397.059C394.484 397.209 394.366 397.356 394.245 397.5C394.124 397.643 393.999 397.784 393.871 397.922C393.742 398.059 393.61 398.193 393.475 398.324C393.34 398.455 393.202 398.583 393.06 398.707C392.919 398.831 392.775 398.951 392.627 399.067C392.466 399.19 392.301 399.309 392.134 399.423C391.967 399.538 391.797 399.648 391.624 399.754C391.451 399.86 391.276 399.961 391.098 400.058C390.92 400.156 390.74 400.248 390.557 400.336C390.374 400.424 390.19 400.507 390.003 400.586C389.816 400.664 389.628 400.738 389.437 400.807C389.247 400.876 389.054 400.94 388.861 401C388.667 401.059 388.471 401.114 388.275 401.163C388.079 401.213 387.881 401.257 387.682 401.296C387.483 401.336 387.284 401.37 387.083 401.4C386.883 401.429 386.682 401.454 386.48 401.473C386.278 401.492 386.076 401.506 385.873 401.515C385.671 401.524 385.468 401.528 385.266 401.527C385.063 401.526 384.86 401.519 384.658 401.508C384.456 401.496 384.254 401.48 384.052 401.458C383.851 401.437 383.65 401.41 383.45 401.378C380.395 400.893 377.632 399.278 375.841 396.737C373.552 393.489 373.363 389.997 373.946 386.224C374.335 384.818 374.863 383.652 375.697 382.451C376.227 382.245 376.745 381.752 377.214 381.415C379.065 380.082 380.671 379.173 382.968 378.834Z" fill="#524FD1"/>
<path d="M373.098 117.245C372.338 113.391 372.423 110.007 374.724 106.617C374.842 106.445 374.965 106.275 375.091 106.109C375.218 105.943 375.349 105.78 375.484 105.62C375.619 105.461 375.758 105.304 375.901 105.152C376.044 104.999 376.191 104.85 376.342 104.705C376.492 104.56 376.646 104.418 376.804 104.281C376.961 104.143 377.122 104.01 377.287 103.88C377.451 103.751 377.618 103.626 377.789 103.505C377.96 103.384 378.133 103.268 378.31 103.156C378.486 103.043 378.666 102.936 378.848 102.832C379.03 102.73 379.214 102.631 379.401 102.538C379.588 102.443 379.777 102.354 379.968 102.27C380.16 102.186 380.353 102.107 380.549 102.032C380.744 101.958 380.941 101.888 381.14 101.824C381.339 101.759 381.54 101.7 381.742 101.645C381.944 101.591 382.147 101.541 382.351 101.498C382.555 101.453 382.761 101.414 382.967 101.38C386.115 100.87 389.302 101.795 391.838 103.692C392.004 103.816 392.167 103.944 392.327 104.076C392.487 104.208 392.643 104.344 392.796 104.484C392.949 104.624 393.099 104.767 393.244 104.915C393.39 105.062 393.532 105.213 393.67 105.367C393.809 105.521 393.943 105.679 394.074 105.84C394.204 106.001 394.331 106.166 394.453 106.333C394.575 106.5 394.693 106.671 394.807 106.844C394.921 107.017 395.03 107.193 395.135 107.372C395.24 107.55 395.341 107.731 395.437 107.915C395.533 108.099 395.624 108.284 395.71 108.473C395.797 108.661 395.879 108.851 395.957 109.043C396.034 109.236 396.106 109.43 396.174 109.626C396.242 109.822 396.304 110.019 396.362 110.218C396.42 110.417 396.473 110.618 396.52 110.819C396.568 111.021 396.611 111.224 396.648 111.428C396.686 111.631 396.719 111.836 396.746 112.041C397.172 115.209 396.064 118.42 394.084 120.887C391.995 123.49 389.207 125.12 385.866 125.489C383.939 125.702 382.139 125.481 380.306 124.874C379.022 124.157 377.875 123.353 376.7 122.472L375.43 121.249C374.358 120.04 373.687 118.731 373.098 117.245Z" fill="#524FD1"/>
<path d="M317.415 112.097C320.644 112.385 323.728 112.619 326.937 113.052C338.713 117.087 346.442 121.853 352.088 133.319C357.585 124.404 363.353 120.57 373.098 117.245C373.687 118.731 374.358 120.04 375.43 121.249L376.7 122.472C372.958 134.149 365.404 142.577 357.639 151.635C356.89 151.545 356.02 151.182 355.283 150.972C353.246 150.784 351.536 150.953 349.569 151.511C349.225 150.136 349.371 148.412 349.32 146.988C349.165 142.607 348.413 138.615 346.576 134.6C342.202 125.042 334.011 121.068 324.635 117.637C321.378 117.308 318.284 116.528 314.975 116.333L314.086 116.113C314.655 114.64 315.547 113.389 316.549 112.187L317.415 112.097Z" fill="#3C88AF"/>
<path d="M375.43 121.249L376.7 122.472C372.958 134.149 365.404 142.577 357.639 151.635C356.89 151.545 356.02 151.182 355.283 150.972C355.711 146.987 355.383 142.332 353.871 138.592C354.937 136.141 356.196 133.881 357.852 131.777C362.03 126.469 368.622 122.086 375.43 121.249Z" fill="#5E94C7"/>
<path d="M85.1048 98.2177C95.2698 94.391 104.918 93.1567 115.075 97.7607C119.134 99.6 121.955 102.045 124.703 105.507C129.336 99.5204 135.662 96.519 143.094 95.5448C154.999 93.9843 163.81 97.7294 173.337 104.384C178.276 109.092 182.011 113.888 185.135 119.977C185.673 121.097 186.3 122.24 186.761 123.391C187.213 123.474 187.075 123.405 187.429 123.615C187.505 123.66 187.577 123.71 187.652 123.757C188.172 123.505 188.376 123.411 188.71 122.916C189.209 122.176 189.757 121.518 190.33 120.834C191.863 122.964 193.957 125.374 194.82 127.857C204.948 134.434 209.463 138.826 213.66 150.546L214.718 154.51C215.421 159.373 215.636 163.709 215.007 168.604C214.182 171.75 213.276 174.883 212.096 177.917C215.599 182.646 218.323 187.567 219.648 193.364C220.791 203.68 219.553 212.698 212.88 221.064C210.199 224.424 206.974 226.823 203.184 228.8C203.738 234.184 203.12 238.444 200.826 243.381C200.262 244.508 199.65 245.504 198.936 246.539C193.99 252.969 187.769 257.189 179.592 258.254C178.905 258.343 178.244 258.412 177.549 258.396C176.985 258.533 176.959 258.565 176.638 259.083C175.122 261.526 174.067 264.145 172.412 266.552L171.084 268.38C168.231 271.27 165.324 274.102 161.891 276.31C155.532 279.267 149.616 281.586 142.457 280.789C135.181 279.979 129.594 276.442 125.068 270.811C121.688 275.496 117.191 278.577 111.57 279.984C111.151 280.088 110.729 280.182 110.305 280.265C109.88 280.349 109.454 280.422 109.027 280.486C108.599 280.549 108.171 280.603 107.741 280.646C107.31 280.689 106.879 280.722 106.448 280.745C106.016 280.768 105.584 280.78 105.152 280.783C104.719 280.785 104.287 280.777 103.855 280.759C103.424 280.741 102.993 280.713 102.562 280.674C102.131 280.635 101.702 280.587 101.274 280.528C100.845 280.469 100.419 280.4 99.9935 280.321C99.5687 280.242 99.1458 280.153 98.7249 280.054C98.304 279.955 97.8859 279.846 97.4705 279.728C97.0548 279.609 96.6422 279.48 96.2327 279.342C95.8232 279.204 95.4171 279.056 95.0145 278.898C94.6118 278.74 94.2132 278.573 93.8187 278.397C93.4241 278.221 93.0338 278.035 92.6478 277.84C92.262 277.645 91.881 277.441 91.5047 277.229C89.0486 275.857 86.8387 274.123 84.4319 272.683L84.3855 272.542C82.5676 270.887 80.9563 269.147 79.5847 267.099C78.5701 265.584 77.0867 261.687 76.032 260.834C70.7405 261.044 64.071 257.689 60.027 254.477C52.3893 248.412 49.5963 240.033 48.523 230.658C47.4571 229.909 46.4043 229.143 45.3645 228.359C36.7145 221.816 31.3273 212.525 29.8704 201.758C28.6849 192.996 30.6914 183.437 36.06 176.327C33.0449 166.139 34.4165 154.29 39.2371 144.886C44.571 134.48 52.5148 128.55 63.4338 125.009C64.1047 122.964 64.7478 120.914 65.612 118.94C68.1076 113.146 71.8059 108.478 76.3933 104.206C79.1023 101.924 81.9519 99.8417 85.1048 98.2177Z" fill="url(#paint0_linear_2_3)"/>
<path d="M190.33 120.834C191.863 122.964 193.957 125.374 194.821 127.857C192.546 126.845 190.061 126.022 187.883 124.836C187.129 124.425 187.032 124.198 186.761 123.391C187.213 123.474 187.075 123.405 187.429 123.615C187.505 123.66 187.577 123.71 187.652 123.757C188.172 123.505 188.376 123.411 188.71 122.916C189.209 122.176 189.757 121.518 190.33 120.834Z" fill="#000C26"/>
<path d="M65.612 118.94L65.8449 119.531C65.4485 120.698 64.2863 124.892 63.5568 125.516C63.1584 125.856 61.1867 126.193 60.592 126.37C59.5734 126.672 58.527 126.935 57.6511 127.558C56.2868 128.527 54.6022 128.924 53.2389 129.864C48.9167 132.841 44.8877 137 41.8681 141.265C40.6237 143.022 39.7488 144.929 38.8589 146.88C35.1602 154.989 34.7426 162.46 35.3316 171.22C35.422 172.563 36.5801 174.932 36.5594 175.642C36.5235 176.873 33.9729 180.413 33.3393 181.647C29.9639 188.217 29.3658 196.515 30.6189 203.706C31.23 207.212 32.3163 212.723 35.4869 214.807C36.0696 215.19 36.5993 215.423 37.2888 215.258C37.3942 213.152 34.461 210.192 34.3231 207.804C34.214 205.914 33.388 203.823 33.0461 201.915C32.1599 196.971 32.7389 190.15 34.6626 185.475C35.6002 183.197 38.6692 178.368 39.1057 176.791C39.619 174.936 38.2901 171.703 38.0197 169.752C37.6535 167.108 37.7313 164.161 37.8667 161.497C38.5138 148.772 46.1742 136.538 57.5173 130.716C58.739 130.089 59.9792 129.368 61.2785 128.918C62.4221 128.522 64.8059 128.461 65.7053 127.765C68.0608 125.94 66.8718 120.701 69.3811 118.762C69.4655 118.697 69.5637 118.651 69.655 118.596C68.3557 121.688 67.4172 124.838 66.5485 128.073C56.4733 130.58 49.0304 135.496 43.6323 144.56C37.7885 154.373 37.0096 165.148 39.8602 176.051L39.9413 176.357C38.5673 178.91 36.9765 181.355 35.7988 184.008C32.6202 191.167 32.4074 199.598 34.641 207.052C37.4286 216.354 43.498 223.642 51.9284 228.412C52.0412 236.341 54.5661 244.391 60.3561 250.057C65.7312 255.318 71.9841 256.925 79.2356 257.659C79.9632 260.751 81.3181 263.291 83.0476 265.94C82.6126 265.924 82.5984 266.022 82.283 265.672C80.4246 263.612 80.1204 260.249 78.7459 258.308C78.6653 258.194 78.2239 258.029 78.1555 258.014C77.321 257.825 76.76 257.939 75.9221 257.645C74.5784 257.173 71.8523 256.914 70.4265 256.953L70.1194 257.206C71.342 258.799 74.885 260.071 76.7698 260.805C77.6619 262.108 78.0637 263.601 78.7327 265.018C79.5935 266.84 82.3333 270.233 83.9446 271.451C84.0877 270.826 83.8841 270.536 83.5374 270.022C82.24 268.097 79.8123 265.906 79.3738 263.552L79.5842 263.405C80.5554 264.047 84.0139 269.683 84.345 270.892C84.4871 271.409 84.4197 272.012 84.3855 272.542C82.5676 270.887 80.9563 269.147 79.5847 267.099C78.5701 265.584 77.0867 261.687 76.032 260.835C70.7405 261.044 64.071 257.689 60.027 254.477C52.3893 248.412 49.5963 240.033 48.523 230.658C47.4571 229.909 46.4043 229.143 45.3645 228.359C36.7145 221.816 31.3273 212.525 29.8704 201.758C28.6849 192.996 30.6914 183.437 36.06 176.327C33.0449 166.139 34.4165 154.29 39.2371 144.886C44.571 134.48 52.5148 128.55 63.4338 125.009C64.1047 122.964 64.7478 120.914 65.612 118.94Z" fill="#4564CE"/>
<path d="M145.801 99.2197C159.967 98.3627 173.168 105.9 180.078 118.247C181.575 120.921 182.259 125.203 184.525 127.241C186.674 129.175 191.135 130.118 193.866 131.503C201.656 135.455 207.414 143.056 210.073 151.266C213.136 160.72 212.111 169.497 207.618 178.227C209.126 179.966 210.646 181.692 211.88 183.641C212.139 184.054 212.388 184.472 212.626 184.897C212.864 185.322 213.092 185.753 213.309 186.189C213.527 186.625 213.733 187.066 213.929 187.512C214.124 187.958 214.309 188.409 214.482 188.864C214.655 189.319 214.817 189.779 214.968 190.242C215.119 190.705 215.258 191.172 215.385 191.642C215.513 192.112 215.629 192.585 215.733 193.061C215.838 193.537 215.93 194.015 216.011 194.495C216.092 194.976 216.161 195.458 216.218 195.942C216.275 196.425 216.32 196.91 216.353 197.396C216.386 197.882 216.407 198.369 216.416 198.856C216.426 199.343 216.423 199.83 216.408 200.317C216.393 200.804 216.366 201.29 216.327 201.776C216.289 202.261 216.238 202.746 216.175 203.229C216.113 203.712 216.038 204.193 215.951 204.673C215.865 205.152 215.767 205.629 215.657 206.104C214.165 212.742 210.525 219.211 204.823 223.1C202.935 224.388 200.838 225.279 198.918 226.51L198.662 226.676C198.939 228.248 199.184 229.804 199.23 231.403C199.384 236.866 197.055 242.529 193.298 246.472C187.901 252.138 181.073 254.357 173.42 254.501C171.513 259.645 169.7 264.014 165.771 267.962C160.56 273.197 153.644 276.405 146.21 276.417C140.607 276.426 134.911 274.481 130.937 270.422C127.181 266.584 126.595 262.568 126.629 257.396C130.084 261.192 133.646 264.086 138.8 265.112C142.232 265.795 149.223 265.827 152.109 263.735C152.851 263.197 153.568 262.379 153.623 261.426C153.646 261 153.612 261.124 153.257 260.775C152.556 260.68 146.251 262.549 143.708 262.606C139.431 262.702 135.07 261.345 131.969 258.321C125.397 251.915 126.317 242.821 126.236 234.455C128.679 232.126 131.502 230.269 134.675 229.105C139.562 230.357 142.376 234.415 146.838 236.256C147.392 236.484 147.361 236.488 147.904 236.264C148.214 235.681 148.282 235.584 148.042 234.915C147.236 232.664 139.466 227.577 137.206 226.451C140.622 222.439 140.679 218.536 142.873 214.145C146.47 206.944 152.322 212.656 155.367 211.316C155.731 211.156 155.724 210.902 155.86 210.561C155.774 209.9 155.734 209.522 155.236 209.041C153.77 207.627 149.52 207.295 147.611 207.504C137.875 208.569 140.012 218.318 135.139 224.135L134.922 224.39C132.329 226.812 128.95 228.267 126.207 230.581C126.265 225.853 126.215 221.12 126.215 216.391C126.215 213.328 125.991 210.061 126.579 207.047C126.682 206.51 126.814 205.98 126.973 205.457C127.132 204.934 127.318 204.42 127.53 203.916C127.743 203.413 127.981 202.921 128.245 202.442C128.508 201.963 128.796 201.499 129.108 201.05C132.987 195.382 139.498 193.694 145.94 195.249C148.076 195.765 150.612 197.081 152.799 196.654C153.339 196.236 153.322 196.286 153.411 195.61C153.239 195.144 153.081 194.791 152.696 194.469C150.075 192.279 142.539 191.505 139.136 191.802C133.302 192.31 129.81 195.315 126.199 199.654L126.213 170.085C130.053 170.761 134.102 170.583 137.714 169.024C150.234 163.621 144.823 149.63 151.388 145.272C157.073 141.499 159.923 148.6 163.237 149.089C164.679 149.302 166.26 144.264 167.041 143.099C167.544 142.348 168.258 141.754 168.999 141.247C172.213 139.048 176.669 139.046 180.359 139.795C186.929 141.127 192.965 145.447 196.636 151.031C202.616 160.125 200.61 172.244 194.702 180.842C193.356 182.801 189.464 186.343 189.195 188.524C189.121 189.118 189.236 189.383 189.602 189.828C190.011 189.937 190.192 189.918 190.609 189.782C193.26 188.924 198.283 181.392 199.61 178.745C203.157 171.67 204.596 162.693 201.985 155.067C199.625 148.177 194.073 142.225 187.551 139.068C182.41 136.58 175.684 135.22 170.174 137.275C166.268 138.733 164.227 141.628 162.511 145.221C160.45 143.245 158.1 141.448 155.133 141.267C153.464 141.164 151.713 141.605 150.225 142.349C142.35 146.285 146.713 158.035 139.683 164.03C135.762 167.373 131.073 167.544 126.213 167.155L126.216 109.963C126.734 109.019 127.337 108.132 128.023 107.302C132.462 102.01 139.118 99.7978 145.801 99.2197Z" fill="#0E2D49"/>
<path d="M168.976 201.079C169.19 201.095 169.497 201.11 169.699 201.162C170.22 201.296 170.63 201.511 170.863 202.021C172.572 205.768 166.709 217.737 165.299 221.826C161.253 233.556 172.202 232.11 173.821 235.413C173.738 236.185 173.534 236.486 173.101 237.099C170.7 236.775 168.421 236.081 166.344 234.815C163.996 233.384 162.362 231.435 161.722 228.731C161.289 226.908 161.354 225.036 161.741 223.213C162.687 218.759 165.133 214.757 166.541 210.446C167.469 207.601 167.401 203.527 168.976 201.079Z" fill="#7D6CD1"/>
<path d="M179.936 220.786C182.201 220.711 184.257 221.057 186.202 222.288C188.495 223.739 189.526 225.818 190.044 228.403C191.007 233.201 190.13 238.828 187.356 242.907C184.107 247.685 178.647 250.54 173.061 251.57C165.322 252.998 156.958 252.136 149.343 250.397C147.968 250.083 145.459 249.627 144.365 248.675C143.701 248.097 143.749 247.664 143.612 246.853C144.162 246.481 144.644 246.327 145.311 246.382C147.749 246.585 150.392 247.497 152.805 247.992C154.188 248.275 155.58 248.507 156.98 248.688C158.38 248.869 159.786 248.999 161.195 249.078C162.605 249.156 164.016 249.182 165.428 249.157C166.84 249.132 168.249 249.055 169.655 248.927C174.936 248.419 180.498 246.724 183.921 242.413C186.653 238.97 187.86 233.832 187.312 229.501C187.095 227.787 186.552 225.987 185.101 224.917C181.893 222.555 179.602 224.499 176.63 224.51C175.923 224.513 175.728 224.083 175.291 223.608C175.242 223.286 175.122 223.061 175.308 222.767C176.115 221.499 178.543 221.006 179.936 220.786Z" fill="#7D6CD1"/>
<path d="M131.435 108.63C135.681 108.851 140.297 111.051 143.277 114.067C146.645 117.475 147.47 121.38 147.47 126.016C151.826 122.85 156.812 119.668 162.288 119.174C166.704 118.775 171.779 120.289 175.131 123.246C175.777 123.816 176.42 124.606 176.367 125.52C176.333 126.109 176.051 126.43 175.635 126.792C173.462 126.963 171.386 123.815 169.303 123.123C163.523 121.202 159.446 122.586 154.278 125.269C148.77 128.357 142.974 132.291 138.413 136.67C136.477 138.529 134.629 141.463 132.429 142.904C131.888 143.259 131.776 143.19 131.167 143.083C130.613 142.659 130.481 142.387 130.252 141.734C130.648 138.16 141.052 131.203 143.746 128.416C143.796 128.364 143.845 128.31 143.894 128.257C144.642 125.288 144.721 122.05 143.401 119.226C141.904 116.019 138.707 113.749 135.43 112.605C134.189 112.171 132.835 111.898 131.632 111.388C131.013 111.125 130.849 110.902 130.587 110.302C130.671 109.509 130.934 109.202 131.435 108.63Z" fill="#7D6CD1"/>
<path d="M183.541 155.621C184.008 155.723 184.358 155.869 184.793 156.061C185.218 156.601 185.364 156.889 185.36 157.591C185.351 159.555 184.229 161.667 183.312 163.361C176.676 175.622 164.33 166.819 156.927 174.877C155.586 176.336 153.086 179.835 153.164 181.808C153.525 182.157 153.83 182.296 154.307 182.417C158.631 183.513 163.753 183.51 168.55 184.729C171.942 185.59 175.309 186.834 178.109 188.983C185.475 194.636 183.488 205.537 189.292 210.296C190.768 211.507 192.56 211.853 194.424 211.61C197.832 211.164 201.395 209.003 203.384 206.195C205.511 203.191 206.24 199.04 204.825 195.573C204.243 194.146 203.42 192.835 203.16 191.302C203.31 190.704 203.566 190.464 203.996 190.034C204.327 189.935 204.492 189.814 204.838 189.937C205.959 190.335 206.543 191.746 207.075 192.726C207.413 193.596 207.72 194.462 207.943 195.369C208.932 199.402 208.543 203.952 206.286 207.505C204.097 210.951 200.306 213.612 196.278 214.365C180.713 217.275 184.076 199.133 177.228 192.176C170.32 185.158 155.551 187.762 150.791 184.185C150.154 183.707 149.937 183.027 149.859 182.268C149.58 179.596 152.432 175.563 154.097 173.517C159.025 167.465 165.039 168.294 171.964 167.563C177.24 167.007 180.042 164.208 181.811 159.412C182.291 158.112 182.665 156.716 183.541 155.621Z" fill="#7D6CD1"/>
<path d="M92.6708 99.5771C100.46 97.5747 109.103 98.3413 116.132 102.49C118.436 103.851 121.583 106.537 122.292 109.245C123.305 113.115 122.762 118.028 122.762 122.042L122.765 141.848L122.789 232.751C119.643 235.835 115.809 239.05 111.131 238.978C104.224 238.874 95.8793 231.249 91.3529 226.473C89.5853 217.18 89.4442 208.863 83.1664 201.08C81.827 199.42 80.1917 197.649 78.4046 196.468C77.7386 196.028 77.2406 195.806 76.4261 195.811C75.9158 196.146 75.6673 196.323 75.5472 196.983C75.4315 197.619 75.8812 198.149 76.2918 198.574C77.6976 200.028 79.3612 201.184 80.6576 202.764C85.3968 208.537 87.9437 218.472 88.0926 225.87C88.1371 228.074 87.7606 230.939 86.1366 232.584C84.9994 233.737 83.5814 234.853 83.4471 236.634C83.4139 237.075 83.5204 237.187 83.8119 237.481C84.5599 237.729 85.1083 237.636 85.7855 237.265C88.1835 235.951 89.9139 232.346 90.8695 229.876C96.3476 235.212 103.346 242.341 111.658 242.126C116.046 242.013 119.643 239.603 122.845 236.84C122.917 244.275 123.674 252.507 117.965 258.298C115.079 261.226 110.932 262.466 106.897 262.411C104.293 262.376 101.936 261.71 99.516 260.794C98.8915 260.559 97.7812 259.935 97.1522 259.878C96.6581 259.834 96.3598 260.178 96.0248 260.468C95.8441 261.03 95.7274 261.303 96.0351 261.875C97.0717 263.801 102.288 264.976 104.384 265.275C109.425 265.993 114.43 264.849 118.518 261.781C120.078 260.61 121.426 259.138 122.781 257.741C123.142 262.381 122.679 266.455 119.571 270.121C116.207 274.089 111.187 275.931 106.105 276.3C98.7992 276.831 91.8597 274.099 86.3773 269.334C85.1805 268.294 84.0858 267.137 83.0477 265.94C81.3182 263.291 79.9632 260.752 79.2357 257.659C71.9842 256.925 65.7312 255.318 60.3562 250.057C54.5662 244.391 52.0412 236.341 51.9285 228.412C43.4981 223.643 37.4287 216.354 34.6411 207.052C32.4074 199.598 32.6203 191.167 35.7989 184.008C36.9765 181.355 38.5673 178.91 39.9414 176.357L39.8602 176.051C37.0097 165.148 37.7886 154.373 43.6323 144.56C49.0305 135.496 56.4734 130.58 66.5486 128.073C67.4173 124.838 68.3558 121.689 69.6551 118.596C74.7835 109.772 80.3285 104.084 89.9764 100.38C91.0848 104.081 92.5692 107.693 93.4774 111.447C93.9833 113.539 94.5077 120.914 95.4926 121.994C96.0702 122.146 96.456 122.245 97.0321 121.932C97.6601 121.59 97.7387 121.018 97.7851 120.376C98.2011 114.618 95.1352 104.977 92.6708 99.5771Z" fill="url(#paint1_linear_2_3)"/>
<path d="M98.4175 183.216C98.8428 183.324 99.5552 183.495 99.9013 183.775C100.415 184.189 100.454 184.512 100.422 185.14C100.329 187.048 97.7265 194.918 96.2236 196.148C96.0127 195.494 96.1484 195.374 96.3877 194.718C95.9638 194.7 95.5424 194.694 95.1181 194.694C94.7939 192.672 97.1562 185.075 98.4175 183.216Z" fill="#7D6CD1"/>
<path d="M96.0989 246.422C97.7674 246.151 100.175 246.075 101.839 246.285C103.125 246.448 104.336 246.708 105.167 247.774L104.97 248.41L105.205 247.953C105.146 248.044 104.869 248.479 104.8 248.547C104.133 249.198 102.275 249.169 101.38 249.228C98.9998 249.237 96.5086 249.62 94.1516 249.464C93.2434 249.404 92.6384 249.247 92.0315 248.555C92.0544 248.148 91.988 247.965 92.2654 247.631C93.1028 246.625 94.8787 246.594 96.0989 246.422Z" fill="#7D6CD1"/>
<path d="M77.7967 113.657C78.2151 113.666 78.5667 113.759 78.9725 113.854C79.2439 114.129 79.5022 114.266 79.5579 114.67C79.7606 116.135 75.9842 121.59 75.6556 124.142C75.5094 125.254 75.4386 126.37 75.4432 127.492C75.448 128.613 75.5283 129.729 75.6839 130.84C75.8211 131.797 76.471 134.04 76.2181 134.92C76.1302 135.228 75.886 135.467 75.72 135.741L74.7029 135.763C74.3826 135.63 74.1214 135.503 73.885 135.239C72.1878 133.343 72.3557 129.419 72.4959 127.026C72.7512 122.672 74.4656 116.63 77.7967 113.657Z" fill="#7D6CD1"/>
<path d="M97.1317 201.353C97.8426 201.641 98.1214 201.93 98.514 202.588C100.412 205.764 102.214 209.331 105.102 211.759C107.087 213.428 112.6 215.224 113.677 216.857C114.093 217.487 113.819 218.008 113.665 218.673C112.874 218.873 112.382 218.795 111.595 218.592C106.223 217.204 101.294 213.019 98.6107 208.222C97.4628 206.17 96.4833 203.707 97.1317 201.353Z" fill="#7D6CD1"/>
<path d="M77.6937 179.541C79.7225 179.472 82.1395 179.484 83.8734 180.648C84.1991 181.191 84.3143 181.327 84.1478 181.987C84.0301 182.452 83.6981 183.165 83.1693 183.238C82.3993 183.343 80.8636 182.691 79.9911 182.606C76.3719 182.254 72.2132 183.382 68.9891 184.965C64.0623 187.384 61.449 191.066 59.74 196.173C59.4934 197.481 59.3777 199.327 58.3259 200.241C57.7288 200.431 57.4207 200.263 56.8552 200.062C56.5608 199.74 56.4104 199.685 56.3494 199.232C55.8899 195.83 59.0164 189.815 61.1917 187.256C65.2498 182.482 71.5789 180.036 77.6937 179.541Z" fill="#524FD1"/>
<path d="M103.935 168.109C105.005 168.397 105.976 168.831 106.925 169.402C111.247 172.005 115.007 176.313 116.169 181.31C117.06 185.143 116.447 189.438 114.281 192.748C111.972 196.276 108.367 198.341 104.308 199.191C103.789 199.186 103.147 199.131 102.719 198.822C102.444 198.623 102.505 198.397 102.462 198.089C103.167 196.824 104.96 196.184 106.188 195.541C109.591 193.758 112.141 191.931 113.258 188.064C114.819 182.659 111.988 176.608 107.545 173.38C106.124 172.348 104.184 171.639 103.283 170.061C103.243 169.268 103.568 168.778 103.935 168.109Z" fill="#7D6CD1"/>
<path d="M79.9412 157.938C82.7523 157.036 85.6263 156.103 88.6205 156.346C95.806 156.93 101.194 162.915 108.654 158.559C110.455 157.507 112.016 156.07 112.938 154.174C114.029 151.932 113.953 149.492 113.103 147.179C112.053 144.319 110.029 141.818 108.362 139.299C104.537 133.521 103.48 127.077 106.345 120.596C107.862 117.164 112.471 111.397 116.064 110.156C116.823 109.894 117.769 109.889 118.5 110.224C118.901 110.408 118.862 110.515 119.029 110.884C118.525 112.877 114.671 114.488 113.117 115.983C107.545 121.343 105.93 129.402 109.941 136.171C113.073 141.456 118.062 146.627 116.325 153.307C115.444 156.695 112.795 159.732 109.77 161.45C106.306 163.417 102.168 163.64 98.3934 162.514C91.0599 160.325 87.4891 157.155 79.6527 161.28C73.5511 164.491 71.616 169.116 63.9426 170.075C63.8557 169.512 63.7942 169.116 63.4885 168.63C63.0227 168.371 62.5891 168.135 62.1873 167.782C62.0916 167.698 61.9978 167.613 61.9031 167.528C67.1028 166.875 71.825 164.714 75.0496 160.404C79.6937 154.198 75.9217 145.825 81.8006 140.527C83.3919 139.092 85.4149 138.237 87.5233 137.926C92.3509 137.213 97.8514 139.48 101.767 142.185C102.284 142.542 102.66 143.243 102.746 143.862C102.828 144.443 102.715 144.657 102.392 145.086C99.5868 145.449 88.89 135.973 83.1077 143.505C80.0833 147.446 81.2117 153.332 79.9412 157.938Z" fill="#7D6CD1"/>
<path d="M56.7101 169.084C54.6451 167.003 52.9493 164.945 51.8634 162.187C51.7674 161.943 51.6775 161.698 51.5939 161.45C51.5099 161.202 51.4322 160.952 51.361 160.7C51.2893 160.448 51.2241 160.195 51.1652 159.94C51.1062 159.685 51.0537 159.429 51.0074 159.172C50.9612 158.914 50.9213 158.655 50.8878 158.396C50.8546 158.136 50.8276 157.876 50.8068 157.615C50.7862 157.354 50.7721 157.093 50.7643 156.831C50.7568 156.57 50.7556 156.308 50.7609 156.047C50.7661 155.785 50.7778 155.523 50.796 155.262C50.8142 155.001 50.8388 154.741 50.8697 154.481C50.901 154.221 50.9384 153.963 50.982 153.705C51.026 153.447 51.0763 153.19 51.1329 152.934C51.1892 152.679 51.2521 152.425 51.3214 152.172C51.3904 151.92 51.4656 151.669 51.547 151.421C51.6287 151.172 51.7164 150.926 51.8102 150.681C51.9036 150.437 52.0032 150.195 52.109 149.956C54.1891 145.261 59.0529 141.245 63.8219 139.506C64.734 139.174 65.5046 139.006 66.4093 139.436C66.8493 140.003 66.8459 139.994 66.821 140.712C65.9045 142.533 62.2008 143.401 60.485 144.54C57.1676 146.739 54.3908 150.246 53.6818 154.221C53.0846 157.569 53.984 161.135 55.942 163.9C57.5768 166.207 59.1984 167.047 61.903 167.528C61.9977 167.613 62.0915 167.698 62.1872 167.782C62.589 168.135 63.0226 168.371 63.4884 168.63C63.7941 169.116 63.8556 169.512 63.9425 170.075L63.1081 170.265C56.9069 171.704 51.8839 174.899 48.5119 180.399C44.9171 186.262 43.9518 193.724 45.5589 200.381C47.0155 206.413 50.8356 212.246 56.2164 215.471C60.5373 218.059 65.1676 218.138 69.9455 216.959C69.5676 214.552 68.1921 211.986 68.1247 209.61C68.1071 208.979 68.1764 208.683 68.5988 208.225C68.7092 208.248 68.821 208.264 68.9304 208.292C69.9631 208.556 70.7092 209.577 71.1896 210.477C72.1076 212.199 72.5739 214.177 73.0202 216.062C75.1843 225.199 69.2487 226.334 67.1467 233.233C64.0124 243.521 76.5398 244.351 78.0368 247.222C77.967 247.859 77.9655 247.882 77.5285 248.349C76.8571 248.575 76.3679 248.571 75.6677 248.447C72.2795 247.845 68.0549 245.512 66.0788 242.69C62.9997 238.294 63.0436 233.301 65.9533 228.794C67.2614 226.768 68.9191 224.821 69.8698 222.593C70.2726 221.648 70.4338 220.561 70.6237 219.556C66.8473 220.505 63.2629 220.872 59.4494 219.88C53.5592 218.347 48.6153 214.079 45.585 208.881C41.7175 202.246 40.6992 193.677 42.7307 186.285C44.9767 178.113 49.5045 173.22 56.7101 169.084Z" fill="#4651D3"/>
<path d="M314.975 116.333C318.284 116.528 321.379 117.308 324.635 117.637C334.011 121.068 342.202 125.042 346.576 134.6C348.413 138.615 349.165 142.607 349.321 146.988C349.371 148.412 349.225 150.136 349.569 151.511C346.267 153.228 343.824 155.173 342.646 158.888C342.586 159.073 342.531 159.259 342.48 159.446C342.429 159.634 342.383 159.823 342.342 160.013C342.301 160.203 342.264 160.393 342.233 160.585C342.201 160.777 342.174 160.969 342.152 161.162C342.13 161.356 342.113 161.549 342.101 161.743C342.089 161.937 342.082 162.131 342.08 162.325C342.078 162.52 342.08 162.714 342.088 162.908C342.095 163.103 342.108 163.297 342.125 163.49C342.143 163.684 342.165 163.877 342.192 164.069C342.219 164.261 342.251 164.453 342.288 164.644C342.325 164.835 342.366 165.025 342.412 165.213C342.459 165.402 342.51 165.589 342.566 165.776C342.622 165.962 342.682 166.146 342.748 166.329C342.813 166.513 342.883 166.694 342.957 166.873C343.031 167.053 343.11 167.23 343.194 167.406C343.277 167.581 343.365 167.755 343.457 167.926C344.352 169.609 345.486 170.825 346.926 172.046C348.091 172.728 349.231 173.374 350.551 173.72C353.306 174.218 355.403 174.057 358.063 173.287C361.091 176.976 364.001 180.759 367.024 184.451C370.955 189.253 374.973 193.963 378.726 198.908C375.894 201.275 373.936 203.643 373.604 207.483C373.586 207.674 373.573 207.865 373.564 208.057C373.556 208.249 373.552 208.441 373.553 208.633C373.554 208.825 373.56 209.017 373.571 209.209C373.582 209.401 373.598 209.592 373.618 209.783C373.638 209.974 373.663 210.165 373.693 210.354C373.723 210.544 373.758 210.733 373.797 210.921C373.837 211.109 373.881 211.296 373.93 211.481C373.978 211.667 374.032 211.852 374.09 212.035C374.148 212.218 374.21 212.399 374.277 212.579C374.344 212.759 374.416 212.938 374.492 213.114C374.568 213.29 374.648 213.465 374.733 213.637C374.818 213.809 374.907 213.979 375 214.147C375.093 214.315 375.191 214.481 375.292 214.644C375.394 214.807 375.5 214.967 375.609 215.125C375.719 215.282 375.832 215.437 375.95 215.59C376.067 215.742 376.188 215.891 376.313 216.036C378.033 218.047 380.296 219.329 382.854 219.94C383.887 220 384.932 220.097 385.965 220.106L386.159 266.212C386.169 275.426 385.945 284.699 386.23 293.906C389.707 294.769 392.59 296.312 394.559 299.444C394.667 299.616 394.771 299.791 394.871 299.969C394.97 300.147 395.065 300.327 395.155 300.509C395.245 300.692 395.33 300.877 395.411 301.064C395.492 301.251 395.568 301.44 395.638 301.631C395.709 301.822 395.775 302.015 395.836 302.209C395.897 302.403 395.953 302.599 396.003 302.797C396.054 302.994 396.1 303.192 396.14 303.392C396.181 303.591 396.216 303.792 396.247 303.993C396.277 304.195 396.301 304.397 396.321 304.6C396.341 304.802 396.356 305.005 396.365 305.209C396.374 305.412 396.378 305.616 396.376 305.82C396.376 306.023 396.369 306.227 396.357 306.43C396.345 306.633 396.328 306.836 396.306 307.039C396.284 307.241 396.257 307.443 396.224 307.644C396.191 307.845 396.153 308.045 396.11 308.244C396.067 308.443 396.019 308.641 395.966 308.838C395.096 312.149 392.982 314.908 389.955 316.522C388.716 317.183 387.384 317.515 386.026 317.82C386.569 338.119 386.144 358.53 386.166 378.841L382.968 378.834C380.671 379.173 379.065 380.082 377.214 381.414C376.746 381.752 376.228 382.245 375.697 382.451C374.863 383.652 374.335 384.818 373.946 386.224C370.704 386.259 367.504 386.335 364.318 385.616C356.404 383.831 350.709 378.192 347.311 370.997C346.13 368.496 345.293 365.729 343.794 363.394C343.753 363.331 343.711 363.27 343.67 363.207C343.5 360 343.764 348.972 343.56 345.921C343.378 343.188 343.56 363.394 343.56 345.921C344.131 343.113 343.717 338.506 343.72 335.466L343.739 311.195L343.605 251.304C343.596 240.687 343.873 230.049 343.663 219.435C337.142 233.832 329.232 247.52 321.507 261.289C313.325 276.034 305.057 290.732 296.704 305.381L278.805 336.955C276.201 341.554 273.868 346.419 270.997 350.85C270.298 351.947 269.53 352.993 268.693 353.988C267.856 354.983 266.957 355.919 265.996 356.795C261.485 360.834 255.744 363.011 249.677 362.644C245.325 362.38 241.463 360.909 238.327 357.818C236.038 355.562 234.578 352.414 232.931 349.682L226.732 339.435L191.696 281.193L182.998 266.793C181.381 264.113 179.799 260.854 177.702 258.556C177.652 258.501 177.6 258.449 177.55 258.396C178.244 258.412 178.905 258.343 179.593 258.254C187.769 257.189 193.99 252.969 198.936 246.539C199.65 245.504 200.263 244.508 200.826 243.381C203.12 238.444 203.738 234.184 203.184 228.8C206.974 226.823 210.2 224.424 212.88 221.064C219.554 212.698 220.791 203.68 219.648 193.364C218.323 187.567 215.599 182.646 212.096 177.917C213.276 174.883 214.183 171.75 215.007 168.604C215.636 163.709 213.583 182.779 212.88 177.917C232.06 178.035 235.081 239.072 250.5 228.8C259.577 236.823 282.5 175.5 290.896 160.62L292.882 156.709C294.238 154.895 295.262 152.612 296.363 150.629C298.787 146.288 301.181 141.93 303.546 137.556C307.199 130.822 311.32 124.194 314.726 117.346C314.892 117.013 314.948 116.699 314.975 116.333Z" fill="#5E94C7"/>
<path d="M382.859 317.794C383.921 317.842 384.963 317.882 386.026 317.82C386.569 338.119 386.144 358.53 386.166 378.841L382.968 378.834C382.565 371.824 382.875 364.621 382.874 357.592L382.859 317.794Z" fill="#FFF7FA"/>
<path d="M382.855 219.94C383.887 220 384.932 220.097 385.965 220.106L386.159 266.212C386.169 275.426 385.945 284.699 386.23 293.906C385.098 293.973 383.952 293.92 382.818 293.903L382.855 219.94Z" fill="#FFF7FA"/>
<path d="M243.72 289.334C245.284 288.119 246.883 287.293 248.832 286.865C252.601 286.037 255.857 286.955 259.004 289.009C260.012 290.157 260.935 291.282 261.78 292.556C263.204 296.139 264.018 299.703 262.491 303.439C262.416 303.618 262.336 303.796 262.252 303.971C262.169 304.147 262.081 304.32 261.988 304.491C261.895 304.662 261.799 304.831 261.698 304.997C261.597 305.164 261.492 305.327 261.383 305.488C261.274 305.649 261.161 305.807 261.043 305.963C260.927 306.118 260.806 306.271 260.681 306.42C260.556 306.569 260.428 306.715 260.296 306.858C260.165 307.001 260.029 307.141 259.89 307.277C259.751 307.413 259.609 307.546 259.463 307.675C259.318 307.804 259.169 307.929 259.018 308.051C258.866 308.173 258.711 308.29 258.553 308.404C258.396 308.518 258.235 308.628 258.072 308.734C257.909 308.84 257.743 308.942 257.575 309.039C257.407 309.137 257.236 309.23 257.063 309.319C256.89 309.408 256.715 309.493 256.538 309.573C256.361 309.654 256.182 309.73 256.001 309.801C255.819 309.871 255.636 309.936 255.451 309.997C255.265 310.057 255.079 310.113 254.891 310.165C254.703 310.216 254.514 310.263 254.324 310.305C254.134 310.347 253.943 310.385 253.75 310.418C253.558 310.45 253.366 310.478 253.172 310.501C252.979 310.524 252.785 310.543 252.59 310.556C252.396 310.57 252.201 310.578 252.007 310.583C251.812 310.587 251.617 310.586 251.423 310.58C251.228 310.574 251.033 310.564 250.839 310.549C250.645 310.533 250.451 310.513 250.258 310.488C250.065 310.463 249.872 310.434 249.681 310.399C249.489 310.365 249.298 310.326 249.108 310.282C248.919 310.238 248.73 310.19 248.542 310.136C248.355 310.083 248.169 310.026 247.984 309.964C247.8 309.901 247.617 309.834 247.436 309.763C247.254 309.691 247.075 309.615 246.897 309.535C243.864 308.148 241.553 305.442 240.498 302.295C239.417 299.073 239.821 295.904 241.1 292.827C241.801 291.475 242.686 290.431 243.72 289.334Z" fill="#524FD1"/>
<path d="M318.906 116.5C322.215 116.696 325.309 117.475 328.566 117.804C337.942 121.236 346.133 125.21 350.507 134.767C352.344 138.783 353.096 142.774 353.252 147.156C353.302 148.58 353.156 150.304 353.5 151.678C350.198 153.396 347.755 155.34 346.577 159.055C346.517 159.24 346.461 159.426 346.411 159.614C346.36 159.801 346.314 159.99 346.272 160.18C346.231 160.37 346.195 160.561 346.164 160.753C346.132 160.944 346.105 161.137 346.083 161.33C346.061 161.523 346.044 161.717 346.032 161.911C346.02 162.104 346.013 162.299 346.011 162.493C346.008 162.687 346.011 162.882 346.019 163.076C346.026 163.27 346.039 163.464 346.056 163.657C346.073 163.851 346.096 164.044 346.123 164.236C346.15 164.429 346.182 164.62 346.219 164.811C346.256 165.002 346.297 165.192 346.343 165.381C346.39 165.569 346.441 165.757 346.497 165.943C346.553 166.129 346.613 166.314 346.679 166.497C346.744 166.68 346.813 166.861 346.888 167.041C346.962 167.22 347.041 167.398 347.125 167.573C347.208 167.749 347.296 167.922 347.388 168.093C348.283 169.776 349.417 170.992 350.857 172.214C343.084 188.392 338.887 195.116 324.737 206.606C322.229 208.643 319.51 211.28 316.703 212.874C317.899 213.727 318.924 214.574 319.707 215.846C321.357 218.685 322.183 221.466 321.283 224.751C320.584 227.303 318.93 229.443 316.585 230.688C314.289 231.908 311.292 232.343 308.787 231.554C308.224 231.376 307.666 231.156 307.118 230.934L297.066 245.374C295.272 247.967 293.498 250.94 291.448 253.312C290.015 252.997 288.618 253.366 287.365 254.115C286.788 256.41 285.205 258.76 284.014 260.808C279.773 268.104 275.016 274.807 269.664 281.329C267.477 283.994 265.125 286.518 262.935 289.177C259.788 287.122 256.531 286.205 252.762 287.033C250.814 287.461 249.215 288.286 247.651 289.502C246.617 290.599 245.732 291.642 245.031 292.995C244.845 292.889 244.656 292.789 244.472 292.679C241.342 290.805 223.936 272.537 220.821 268.781C218.794 266.337 214.813 261.519 214.082 258.46C212.847 256.752 210.84 255.338 209.286 253.897C206.897 251.681 204.8 249.328 202.867 246.707C203.581 245.671 204.193 244.676 204.757 243.549C207.051 238.612 207.669 234.352 207.115 228.967C210.905 226.99 214.13 224.591 216.811 221.231C223.484 212.865 224.722 203.847 223.579 193.532C222.253 187.734 219.53 182.813 216.027 178.084C217.207 175.051 215.986 182.31 216.811 179.164C217.303 181.56 217.514 182.03 216.811 177.167C223.579 186 243.512 246.939 258.931 236.667C268.008 244.69 286.157 152.335 294.826 160.788L296.813 156.876C298.169 155.063 299.193 152.779 300.294 150.797C302.718 146.455 305.112 142.098 307.477 137.724C311.13 130.99 315.251 124.361 318.657 117.514C318.823 117.18 318.878 116.867 318.906 116.5Z" fill="#5E94C7"/>
<path d="M200.826 243.381C204.418 247.713 208.586 251.652 212.497 255.694C211.331 256.317 210.857 256.938 210.458 258.184L210.151 258.293C208.916 256.585 206.909 255.171 205.355 253.73C202.966 251.514 200.869 249.16 198.936 246.539C199.65 245.504 200.262 244.508 200.826 243.381Z" fill="#A6AED1"/>
<path d="M300.504 228.474C301.397 229.229 302.342 229.96 303.187 230.767L293.135 245.206C291.341 247.799 289.567 250.773 287.517 253.144C286.084 252.829 284.688 253.198 283.434 253.948C282.963 254.234 282.518 254.461 282.006 254.666L281.845 254.405C282.714 252.135 285.015 249.89 286.458 247.895L300.504 228.474Z" fill="#A6AED1"/>
<path d="M212.497 255.694C214.091 256.049 214.344 256.539 215.188 257.861C216.819 260.416 218.295 263.067 220.151 265.473C224.223 270.752 229.302 275.358 234.039 280.038C237.181 283.139 240.301 286.542 243.72 289.334C242.686 290.431 241.801 291.475 241.1 292.827C240.914 292.722 240.725 292.621 240.541 292.511C237.411 290.637 220.005 272.369 216.89 268.613C214.863 266.17 210.882 261.352 210.151 258.293L210.458 258.184C210.857 256.938 211.331 256.317 212.497 255.694Z" fill="#3C88AF"/>
<path d="M300.504 228.474C299.71 227.527 299.065 226.622 298.581 225.474C298.514 225.313 298.451 225.149 298.393 224.985C298.334 224.82 298.279 224.654 298.229 224.486C298.179 224.319 298.133 224.15 298.092 223.98C298.05 223.81 298.013 223.64 297.98 223.468C297.948 223.296 297.919 223.124 297.895 222.951C297.871 222.777 297.852 222.603 297.837 222.429C297.822 222.255 297.812 222.08 297.806 221.906C297.8 221.731 297.798 221.556 297.801 221.381C297.804 221.206 297.812 221.032 297.823 220.857C297.835 220.683 297.852 220.509 297.873 220.335C297.894 220.162 297.919 219.989 297.949 219.816C297.979 219.644 298.013 219.473 298.051 219.302C298.09 219.132 298.133 218.962 298.18 218.794C298.228 218.626 298.279 218.459 298.335 218.293C298.391 218.127 298.451 217.963 298.515 217.8C298.58 217.638 298.648 217.477 298.721 217.318C298.787 217.168 298.856 217.021 298.929 216.874C299.002 216.728 299.079 216.584 299.159 216.442C299.24 216.3 299.324 216.16 299.411 216.021C299.498 215.883 299.589 215.748 299.682 215.614C299.776 215.48 299.874 215.349 299.974 215.221C300.075 215.092 300.178 214.966 300.285 214.842C300.392 214.718 300.501 214.598 300.614 214.479C300.727 214.361 300.842 214.246 300.961 214.133C301.079 214.021 301.2 213.911 301.324 213.805C301.448 213.699 301.575 213.595 301.704 213.495C301.833 213.395 301.964 213.298 302.098 213.204C302.232 213.111 302.368 213.02 302.506 212.933C302.644 212.847 302.785 212.763 302.927 212.683C303.07 212.603 303.214 212.527 303.36 212.454C303.507 212.382 303.655 212.312 303.804 212.247C303.954 212.182 304.105 212.12 304.258 212.062C307.258 210.937 309.951 211.433 312.772 212.706C313.968 213.56 314.993 214.407 315.776 215.678C317.427 218.517 318.252 221.298 317.352 224.584C316.653 227.136 314.999 229.275 312.655 230.521C310.358 231.741 307.362 232.176 304.856 231.387C304.293 231.209 303.735 230.989 303.187 230.767C302.342 229.96 301.397 229.229 300.504 228.474Z" fill="#CCCCCC"/>
<path d="M346.926 172.046C348.091 172.728 349.231 173.374 350.551 173.72C349.73 176.498 348.075 179.11 346.843 181.729C341.613 192.85 333.938 201.117 324.457 208.723C321.57 211.04 318.521 213.193 315.776 215.678C314.993 214.407 313.968 213.56 312.772 212.706C315.579 211.112 318.299 208.475 320.806 206.439C334.956 194.949 339.153 188.225 346.926 172.046Z" fill="#3C88AF"/>
<path d="M314.975 116.333C318.284 116.528 321.379 117.308 324.635 117.637C317.055 130.064 310.313 143.166 303.31 155.939L270.834 214.999L259.516 235.873C257.237 240.127 255.099 244.667 252.461 248.707L232.166 214.175C228.49 207.837 223.952 199.097 219.648 193.364C218.323 187.567 215.599 182.646 212.096 177.917C213.276 174.883 214.182 171.75 215.007 168.604C216.776 170.379 222.857 181.54 224.693 184.656C233.886 200.26 242.874 216.031 252.314 231.483C256.413 223.458 260.824 215.602 265.14 207.693L282.78 175.27C285.455 170.374 288.324 165.569 290.896 160.62L292.882 156.709C294.238 154.895 295.262 152.612 296.363 150.629C298.787 146.288 301.181 141.93 303.546 137.556C307.199 130.822 311.32 124.194 314.726 117.346C314.892 117.013 314.947 116.699 314.975 116.333Z" fill="#000C26"/>
<path d="M342.429 166.003C341.669 162.15 341.753 158.766 344.054 155.376C344.173 155.203 344.295 155.034 344.422 154.867C344.549 154.701 344.68 154.538 344.815 154.379C344.95 154.219 345.089 154.063 345.232 153.91C345.375 153.758 345.522 153.609 345.672 153.463C345.823 153.318 345.977 153.177 346.134 153.039C346.292 152.902 346.453 152.768 346.617 152.639C346.782 152.51 346.949 152.385 347.12 152.264C347.29 152.143 347.464 152.026 347.641 151.914C347.817 151.802 347.996 151.694 348.178 151.591C348.36 151.488 348.545 151.39 348.731 151.296C348.918 151.202 349.107 151.113 349.299 151.029C349.49 150.945 349.684 150.865 349.879 150.791C350.075 150.716 350.272 150.647 350.471 150.582C350.67 150.518 350.87 150.458 351.072 150.403C351.274 150.349 351.477 150.3 351.682 150.256C351.886 150.212 352.091 150.173 352.298 150.139C355.445 149.628 358.633 150.554 361.169 152.451C361.335 152.575 361.498 152.703 361.658 152.835C361.818 152.967 361.974 153.103 362.127 153.243C362.28 153.382 362.429 153.526 362.575 153.673C362.721 153.82 362.863 153.971 363.001 154.126C363.139 154.28 363.274 154.438 363.404 154.599C363.535 154.76 363.661 154.924 363.783 155.091C363.906 155.259 364.024 155.429 364.137 155.602C364.251 155.775 364.361 155.951 364.466 156.13C364.571 156.309 364.671 156.49 364.767 156.673C364.863 156.857 364.954 157.043 365.041 157.231C365.128 157.42 365.21 157.61 365.287 157.802C365.365 157.994 365.437 158.188 365.504 158.384C365.572 158.58 365.635 158.778 365.692 158.977C365.75 159.176 365.803 159.376 365.851 159.578C365.898 159.78 365.941 159.982 365.979 160.186C366.017 160.39 366.049 160.595 366.077 160.8C366.502 163.968 365.394 167.179 363.414 169.646C361.326 172.248 358.538 173.878 355.196 174.248C353.27 174.461 351.469 174.239 349.637 173.632C348.353 172.915 347.206 172.111 346.031 171.23L344.761 170.007C343.689 168.798 343.018 167.49 342.429 166.003Z" fill="#524FD1"/>
<path d="M373.429 212.003C372.669 208.15 372.753 204.766 375.054 201.376C375.173 201.203 375.295 201.034 375.422 200.867C375.549 200.701 375.68 200.538 375.815 200.379C375.95 200.219 376.089 200.063 376.232 199.91C376.375 199.758 376.522 199.609 376.672 199.463C376.823 199.318 376.977 199.177 377.134 199.039C377.292 198.902 377.453 198.768 377.617 198.639C377.782 198.51 377.949 198.385 378.12 198.264C378.29 198.143 378.464 198.026 378.641 197.914C378.817 197.802 378.996 197.694 379.178 197.591C379.36 197.488 379.545 197.39 379.731 197.296C379.918 197.202 380.107 197.113 380.299 197.029C380.49 196.945 380.684 196.865 380.879 196.791C381.075 196.716 381.272 196.647 381.471 196.582C381.67 196.518 381.87 196.458 382.072 196.403C382.274 196.349 382.477 196.3 382.682 196.256C382.886 196.212 383.091 196.173 383.298 196.139C386.445 195.628 389.633 196.554 392.169 198.451C392.335 198.575 392.498 198.703 392.658 198.835C392.818 198.967 392.974 199.103 393.127 199.243C393.28 199.382 393.429 199.526 393.575 199.673C393.721 199.82 393.863 199.971 394.001 200.126C394.139 200.28 394.274 200.438 394.404 200.599C394.535 200.76 394.661 200.924 394.783 201.091C394.906 201.259 395.024 201.429 395.137 201.602C395.251 201.775 395.361 201.951 395.466 202.13C395.571 202.309 395.671 202.49 395.767 202.673C395.863 202.857 395.954 203.043 396.041 203.231C396.128 203.42 396.21 203.61 396.287 203.802C396.365 203.994 396.437 204.188 396.504 204.384C396.572 204.58 396.635 204.778 396.692 204.977C396.75 205.176 396.803 205.376 396.851 205.578C396.898 205.78 396.941 205.982 396.979 206.186C397.017 206.39 397.049 206.595 397.077 206.8C397.502 209.968 396.394 213.179 394.414 215.646C392.326 218.248 389.538 219.878 386.196 220.248C384.27 220.461 382.469 220.239 380.637 219.632C379.353 218.915 378.206 218.111 377.031 217.23L375.761 216.007C374.689 214.798 374.018 213.49 373.429 212.003Z" fill="#524FD1"/>
<path d="M372.429 310.003C371.669 306.15 371.753 302.766 374.054 299.376C374.173 299.203 374.295 299.034 374.422 298.867C374.549 298.701 374.68 298.538 374.815 298.379C374.95 298.219 375.089 298.063 375.232 297.91C375.375 297.758 375.522 297.609 375.672 297.463C375.823 297.318 375.977 297.177 376.134 297.039C376.292 296.902 376.453 296.768 376.617 296.639C376.782 296.51 376.949 296.385 377.12 296.264C377.29 296.143 377.464 296.026 377.641 295.914C377.817 295.802 377.996 295.694 378.178 295.591C378.36 295.488 378.545 295.39 378.731 295.296C378.918 295.202 379.107 295.113 379.299 295.029C379.49 294.945 379.684 294.865 379.879 294.791C380.075 294.716 380.272 294.647 380.471 294.582C380.67 294.518 380.87 294.458 381.072 294.403C381.274 294.349 381.477 294.3 381.682 294.256C381.886 294.212 382.091 294.173 382.298 294.139C385.445 293.628 388.633 294.554 391.169 296.451C391.335 296.575 391.498 296.703 391.658 296.835C391.818 296.967 391.974 297.103 392.127 297.243C392.28 297.382 392.429 297.526 392.575 297.673C392.721 297.82 392.863 297.971 393.001 298.126C393.139 298.28 393.274 298.438 393.404 298.599C393.535 298.76 393.661 298.924 393.783 299.091C393.906 299.259 394.024 299.429 394.137 299.602C394.251 299.775 394.361 299.951 394.466 300.13C394.571 300.309 394.671 300.49 394.767 300.673C394.863 300.857 394.954 301.043 395.041 301.231C395.128 301.42 395.21 301.61 395.287 301.802C395.365 301.994 395.437 302.188 395.504 302.384C395.572 302.58 395.635 302.778 395.692 302.977C395.75 303.176 395.803 303.376 395.851 303.578C395.898 303.78 395.941 303.982 395.979 304.186C396.017 304.39 396.049 304.595 396.077 304.8C396.502 307.968 395.394 311.179 393.414 313.646C391.326 316.248 388.538 317.878 385.196 318.248C383.27 318.461 381.469 318.239 379.637 317.632C378.353 316.915 377.206 316.111 376.031 315.23L374.761 314.007C373.689 312.798 373.018 311.49 372.429 310.003Z" fill="#524FD1"/>
<path d="M281.434 252.948C282.688 252.198 284.084 251.829 285.517 252.145C286.053 252.719 286.422 252.886 286.443 253.691C285.857 254.931 285.053 255.946 284.389 257.126C282.726 260.081 281.275 263.076 279.48 265.975C273.826 275.101 266.862 283.512 259.78 291.556C258.935 290.282 258.012 289.157 257.004 288.009C259.194 285.351 261.546 282.827 263.733 280.162C269.085 273.64 273.842 266.936 278.084 259.641C279.274 257.592 280.857 255.242 281.434 252.948Z" fill="#3C88AF"/>
</g>
</g>
<defs>
<linearGradient id="paint0_linear_2_3" x1="31.3767" y1="207.872" x2="216.887" y2="167.033" gradientUnits="userSpaceOnUse">
<stop stop-color="#4B53CF"/>
<stop offset="1" stop-color="#866DD4"/>
</linearGradient>
<linearGradient id="paint1_linear_2_3" x1="34.1672" y1="204.034" x2="138.723" y2="178.328" gradientUnits="userSpaceOnUse">
<stop stop-color="#031016"/>
<stop offset="1" stop-color="#113854"/>
</linearGradient>
<clipPath id="clip0_2_3">
<rect width="500" height="500" fill="white"/>
</clipPath>
<clipPath id="clip1_2_3">
<rect width="500" height="500" fill="white"/>
</clipPath>
</defs>
</svg>
