<svg width="1000" height="1000" viewBox="0 0 1000 1000" fill="none" xmlns="http://www.w3.org/2000/svg">
<path d="M416.667 291.667V375H604.167V291.667H416.667ZM416.667 291.667V375H604.167V291.667H416.667ZM416.667 291.667V375H604.167V291.667H416.667ZM416.667 291.667V375H604.167V291.667H416.667ZM416.667 291.667V375H604.167V291.667H416.667ZM416.667 291.667V375H604.167V291.667H416.667ZM416.667 291.667V375H604.167V291.667H416.667ZM416.667 291.667V375H604.167V291.667H416.667ZM416.667 291.667V375H604.167V291.667H416.667ZM416.667 291.667V375H604.167V291.667H416.667ZM833.334 62.5H187.501C176.45 62.5 165.852 66.8899 158.038 74.7039C150.224 82.5179 145.834 93.116 145.834 104.167V187.5H208.334C219.385 187.5 229.983 191.89 237.797 199.704C245.611 207.518 250.001 218.116 250.001 229.167V270.833C250.001 259.783 245.611 249.185 237.797 241.371C229.983 233.557 219.385 229.167 208.334 229.167H120.834C110.521 230.203 100.964 235.046 94.0296 242.751C87.0955 250.456 83.2821 260.468 83.334 270.833C83.334 281.884 87.7239 292.482 95.5379 300.296C103.352 308.11 113.95 312.5 125.001 312.5H145.834V354.167H208.334C219.385 354.167 229.983 358.557 237.797 366.371C245.611 374.185 250.001 384.783 250.001 395.833V437.5C250.001 426.449 245.611 415.851 237.797 408.037C229.983 400.223 219.385 395.833 208.334 395.833H120.834C110.521 396.87 100.964 401.713 94.0296 409.418C87.0955 417.122 83.2821 427.135 83.334 437.5C83.334 448.551 87.7239 459.149 95.5379 466.963C103.352 474.777 113.95 479.167 125.001 479.167H145.834V520.833H208.334C219.385 520.833 229.983 525.223 237.797 533.037C245.611 540.851 250.001 551.449 250.001 562.5V604.167C250.001 593.116 245.611 582.518 237.797 574.704C229.983 566.89 219.385 562.5 208.334 562.5H120.834C110.521 563.536 100.964 568.38 94.0296 576.084C87.0955 583.789 83.2821 593.801 83.334 604.167C83.334 615.217 87.7239 625.815 95.5379 633.629C103.352 641.443 113.95 645.833 125.001 645.833H145.834V687.5H208.334C219.385 687.5 229.983 691.89 237.797 699.704C245.611 707.518 250.001 718.116 250.001 729.167V770.833C250.001 759.783 245.611 749.185 237.797 741.371C229.983 733.557 219.385 729.167 208.334 729.167H120.834C110.521 730.203 100.964 735.046 94.0296 742.751C87.0955 750.456 83.2821 760.468 83.334 770.833C83.334 781.884 87.7239 792.482 95.5379 800.296C103.352 808.11 113.95 812.5 125.001 812.5H145.834V895.833C145.834 906.884 150.224 917.482 158.038 925.296C165.852 933.11 176.45 937.5 187.501 937.5H833.334C844.385 937.5 854.983 933.11 862.797 925.296C870.611 917.482 875.001 906.884 875.001 895.833V104.167C875.001 93.116 870.611 82.5179 862.797 74.7039C854.983 66.8899 844.385 62.5 833.334 62.5ZM656.251 562.5H364.584C356.296 562.5 348.347 559.208 342.487 553.347C336.626 547.487 333.334 539.538 333.334 531.25C333.334 522.962 336.626 515.013 342.487 509.153C348.347 503.292 356.296 500 364.584 500H656.251C664.539 500 672.487 503.292 678.348 509.153C684.208 515.013 687.501 522.962 687.501 531.25C687.501 539.538 684.208 547.487 678.348 553.347C672.487 559.208 664.539 562.5 656.251 562.5ZM687.501 427.083C687.501 435.371 684.208 443.32 678.348 449.18C672.487 455.041 664.539 458.333 656.251 458.333H364.584C356.296 458.333 348.347 455.041 342.487 449.18C336.626 443.32 333.334 435.371 333.334 427.083V239.583C333.334 231.295 336.626 223.347 342.487 217.486C348.347 211.626 356.296 208.333 364.584 208.333H656.251C664.539 208.333 672.487 211.626 678.348 217.486C684.208 223.347 687.501 231.295 687.501 239.583V427.083ZM416.667 375H604.167V291.667H416.667V375ZM416.667 291.667V375H604.167V291.667H416.667ZM416.667 291.667V375H604.167V291.667H416.667ZM416.667 291.667V375H604.167V291.667H416.667ZM416.667 291.667V375H604.167V291.667H416.667ZM416.667 291.667V375H604.167V291.667H416.667ZM416.667 291.667V375H604.167V291.667H416.667ZM416.667 291.667V375H604.167V291.667H416.667ZM416.667 291.667V375H604.167V291.667H416.667Z" fill="#2B2B2B"/>
</svg>
