<svg width="1000" height="968" viewBox="0 0 1000 968" fill="none" xmlns="http://www.w3.org/2000/svg">
<path d="M0 733.722H770.731C798.334 733.721 824.814 744.657 844.374 764.135C863.934 783.613 874.98 810.047 875.096 837.65C875.096 865.33 864.1 891.875 844.528 911.448C824.956 931.02 798.41 942.015 770.731 942.015H0" stroke="white" stroke-width="50" stroke-miterlimit="10"/>
<path d="M82.9854 733.722C110.366 761.459 126.005 798.681 126.653 837.65C125.982 876.744 110.355 914.093 82.9854 942.015" stroke="white" stroke-width="50" stroke-miterlimit="10"/>
<path d="M1000 733.723H229.27C201.59 733.723 175.044 722.727 155.472 703.155C135.9 683.583 124.904 657.037 124.904 629.358C125.476 602.058 136.723 576.07 156.233 556.968C175.744 537.865 201.964 527.17 229.27 527.176H1000" stroke="white" stroke-width="50" stroke-miterlimit="10"/>
<path d="M917.02 733.721C890.167 705.61 875.183 668.231 875.183 629.355C875.183 590.48 890.167 553.101 917.02 524.99" stroke="white" stroke-width="50" stroke-miterlimit="10"/>
<path d="M708.272 282.2C708.272 403.595 624.867 590.492 499.978 500.537C375.089 587.872 291.685 401.848 291.685 282.2C291.685 162.551 416.573 107.53 499.978 194.865C583.383 105.783 708.272 160.368 708.272 282.2Z" stroke="white" stroke-width="50" stroke-miterlimit="10"/>
<path d="M416.589 25C460.256 25 499.994 68.6675 499.994 149.889" stroke="white" stroke-width="50" stroke-miterlimit="10"/>
</svg>
