<svg width="1000" height="997" viewBox="0 0 1000 997" fill="none" xmlns="http://www.w3.org/2000/svg">
<path d="M999.998 35.7012C999.998 15.9746 983.992 0 964.281 0H603.252V143.852C612.209 138.855 622.52 136.023 633.488 136.023C667.908 136.023 695.83 163.928 695.83 198.373C695.83 232.785 667.924 260.705 633.488 260.705C622.52 260.705 612.209 257.857 603.252 252.895V396.73H747.104C742.125 405.687 739.275 415.996 739.275 426.957C739.275 461.4 767.182 489.307 801.625 489.307C836.053 489.307 863.957 461.4 863.957 426.957C863.957 415.996 861.109 405.687 856.146 396.73H999.998V35.7012Z" fill="#2B2B2B"/>
<path d="M839.094 535.935H657.855C651.508 535.935 645.637 539.291 642.424 544.732L642.6 544.432L642.393 544.766C640.754 547.551 639.926 550.699 639.926 553.834C639.926 556.824 640.69 559.846 642.186 562.553L653.609 583.123C656.17 587.752 657.426 592.621 657.443 597.934C657.428 606.143 654.277 613.715 648.486 619.539C642.664 625.33 635.076 628.48 626.881 628.512C618.672 628.479 611.084 625.33 605.244 619.539L605.268 619.572C599.459 613.717 596.318 606.129 596.303 597.936C596.318 592.637 597.574 587.754 600.127 583.109L611.559 562.555C613.063 559.848 613.818 556.844 613.818 553.836C613.818 550.701 612.99 547.553 611.326 544.734C608.105 539.279 602.234 535.937 595.897 535.937H460.287V463.312C484.795 462.93 507.943 453.273 525.283 435.9C543.037 418.193 552.871 394.441 552.854 369.353C552.869 344.232 543.029 320.48 525.283 302.789C507.957 285.414 484.803 275.773 460.287 275.393V157.119C460.279 147.225 452.26 139.205 442.365 139.205H67.4766C49.5 139.191 32.4375 146.238 19.7578 158.949C7.16604 171.551 0.0156509 188.844 2.58711e-05 206.693V928.736C-0.0155991 946.697 7.0469 963.752 19.7578 976.447C32.3594 989.031 49.627 996.189 67.4766 996.207H789.598C807.4 996.191 824.678 989.031 837.262 976.447C849.975 963.752 857.022 946.713 857.006 928.736V553.85C857.008 543.955 848.988 535.935 839.094 535.935ZM55.4102 206.693C55.4102 202.557 57.336 199.742 58.9102 198.166C60.541 196.543 63.3477 194.602 67.4766 194.602H404.873V338.357C404.873 341.826 406.711 345.023 409.693 346.789C411.221 347.68 412.93 348.127 414.648 348.127C416.287 348.127 417.918 347.728 419.398 346.902L439.961 335.478C445.76 332.264 452.076 330.625 458.727 330.625C469.059 330.625 478.787 334.65 486.098 341.953C493.416 349.287 497.441 359.023 497.441 369.35C497.441 379.674 493.416 389.396 486.113 396.713C478.787 404.031 469.059 408.057 458.727 408.057C452.068 408.057 445.76 406.418 439.969 403.203L419.391 391.779C417.92 390.953 416.281 390.555 414.65 390.555C412.932 390.555 411.221 391 409.695 391.908C406.713 393.658 404.875 396.855 404.875 400.324V544.08H315.861C316.037 541.867 316.123 539.658 316.123 537.478C316.123 514.49 307.174 492.9 290.939 476.689C274.721 460.445 253.131 451.506 230.143 451.506C207.162 451.506 185.574 460.447 169.361 476.674C153.111 492.885 144.162 514.49 144.17 537.463C144.17 539.658 144.256 541.855 144.432 544.082H55.4102V206.693ZM404.875 940.81H67.4766C63.3477 940.81 60.541 938.869 58.9492 937.295C57.336 935.672 55.4102 932.855 55.4102 928.736V591.316H199.158C202.619 591.316 205.824 589.486 207.582 586.512C209.34 583.52 209.389 579.828 207.703 576.807L196.289 556.236C193.066 550.428 191.436 544.113 191.428 537.478C191.436 527.152 195.471 517.418 202.756 510.098C210.096 502.797 219.826 498.754 230.143 498.754C240.459 498.754 250.19 502.797 257.506 510.082C264.816 517.416 268.85 527.152 268.857 537.461C268.85 544.127 267.209 550.443 264.02 556.219L252.58 576.789C250.893 579.828 250.943 583.52 252.701 586.494C254.459 589.484 257.666 591.314 261.125 591.314H404.873V680.357C402.66 680.184 400.459 680.103 398.279 680.103C375.283 680.103 353.693 689.045 337.498 705.271C321.24 721.498 312.299 743.088 312.314 766.061C312.299 789.033 321.24 810.639 337.484 826.85C353.695 843.094 375.285 852.033 398.281 852.033C400.477 852.033 402.68 851.953 404.875 851.779V940.81ZM801.609 928.736C801.609 932.855 799.67 935.656 798.078 937.264C796.455 938.871 793.654 940.812 789.535 940.812H452.141V797.057C452.141 793.588 450.313 790.391 447.32 788.641C445.793 787.732 444.082 787.289 442.365 787.289C440.734 787.289 439.096 787.687 437.623 788.514L417.029 799.937C411.246 803.15 404.938 804.789 398.279 804.789C387.963 804.789 378.232 800.75 370.916 793.461C363.606 786.143 359.572 776.406 359.565 766.08C359.572 755.74 363.607 746.02 370.908 738.701C378.221 731.398 387.947 727.357 398.281 727.342C404.893 727.342 411.207 728.98 417.031 732.193L437.617 743.633C439.098 744.461 440.727 744.859 442.367 744.859C444.084 744.859 445.795 744.412 447.322 743.523C450.305 741.758 452.143 738.559 452.143 735.09V591.318H541.162C540.988 593.529 540.9 595.742 540.9 597.936C540.893 620.893 549.834 642.482 566.068 658.709C582.295 674.969 603.893 683.91 626.873 683.91C649.854 683.91 671.443 674.969 687.672 658.727C703.914 642.516 712.84 620.926 712.84 597.937C712.84 595.742 712.76 593.547 712.586 591.32H801.613V928.736H801.609Z" fill="#2B2B2B"/>
</svg>
