<svg width="30" height="30" viewBox="0 0 30 30" fill="none" xmlns="http://www.w3.org/2000/svg">
<path d="M13 19.5H15.5" stroke="#FFF9FB" stroke-width="1.5" stroke-linecap="round"/>
<path d="M18 15.125C18 16.1605 17.4404 17 16.75 17C16.0596 17 15.5 16.1605 15.5 15.125C15.5 14.0895 16.0596 13.25 16.75 13.25C17.4404 13.25 18 14.0895 18 15.125Z" fill="#FFF9FB"/>
<path d="M11.75 17C12.4404 17 13 16.1605 13 15.125C13 14.0895 12.4404 13.25 11.75 13.25C11.0596 13.25 10.5 14.0895 10.5 15.125C10.5 16.1605 11.0596 17 11.75 17Z" fill="#FFF9FB"/>
<path d="M21.75 8.25L19.25 10.75" stroke="#FFF9FB" stroke-width="1.5" stroke-linecap="round"/>
<path d="M22.9763 2.44145C23.2085 1.85285 24.0415 1.85285 24.2736 2.44145L25.0916 4.51553C25.1625 4.69523 25.3047 4.83748 25.4845 4.90835L27.5585 5.72635C28.1471 5.95849 28.1471 6.79151 27.5585 7.02365L25.4845 7.84165C25.3047 7.91252 25.1625 8.05477 25.0916 8.23447L24.2736 10.3086C24.0415 10.8972 23.2085 10.8972 22.9763 10.3086L22.1583 8.23447C22.0875 8.05477 21.9452 7.91252 21.7655 7.84165L19.6915 7.02365C19.1028 6.79151 19.1028 5.95849 19.6915 5.72635L21.7655 4.90835C21.9452 4.83748 22.0875 4.69523 22.1583 4.51553L22.9763 2.44145Z" stroke="#FFF9FB" stroke-width="1.5"/>
<path d="M7.6875 9.50421C9.06644 8.70654 10.6674 8.25 12.375 8.25C17.5526 8.25 21.75 12.4474 21.75 17.625C21.75 22.8026 17.5526 27 12.375 27C7.19733 27 3 22.8026 3 17.625C3 15.9174 3.45654 14.3165 4.25421 12.9375" stroke="#FFF9FB" stroke-width="1.5" stroke-linecap="round"/>
</svg>
