<svg width="1000" height="867" viewBox="0 0 1000 867" fill="none" xmlns="http://www.w3.org/2000/svg">
<path d="M607.961 543.869C530.56 519.436 552.594 499.986 626.461 472.235C661.845 458.918 640.328 430.835 641.295 408.368C641.728 398.084 682.162 400.134 679.229 360.467C677.162 332.533 615.628 292.733 598.861 275.749C589.177 265.949 618.595 239.132 597.878 215.548C569.594 183.314 565.127 127.23 548.01 95.8631C548.01 95.8631 561.06 75.9295 551.06 64.596C464.792 -33.0554 142.871 -24.0886 60.6033 119.63C-31.748 280.966 -32.9813 503.952 159.038 624.087C244.439 677.505 135.054 866.674 135.054 866.674H473.709C473.709 834.374 435.942 718.505 502.043 723.705C559.477 728.222 629.811 725.739 623.578 660.871C621.695 641.304 619.478 623.687 633.145 607.47C646.812 591.27 666.595 562.37 607.961 543.869Z" fill="#2B2B2B"/>
<path d="M685.476 513.419L999.997 554.619V472.235L685.476 513.419Z" fill="#2B2B2B"/>
<path d="M940.996 784.689L974.73 713.338L685.476 557.203L940.996 784.689Z" fill="#2B2B2B"/>
<path d="M974.73 312.766L940.996 241.398L685.476 468.918L974.73 312.766Z" fill="#2B2B2B"/>
</svg>
