<svg width="1000" height="1064" viewBox="0 0 1000 1064" fill="none" xmlns="http://www.w3.org/2000/svg">
<path d="M757.325 725.171C792.934 701.785 839.706 727.297 839.706 769.816V838.378C839.706 905.878 787.088 978.16 723.841 999.42L554.295 1055.76C524.532 1065.86 476.166 1065.86 446.934 1055.76L277.388 999.42C213.609 978.16 161.523 905.878 161.523 838.378V769.285C161.523 727.297 208.295 701.785 243.373 724.639L352.86 795.859C394.848 824.028 447.997 837.847 501.146 837.847C554.295 837.847 607.444 824.028 649.432 795.859L757.325 725.171Z" fill="#2B2B2B"/>
<path d="M924.659 237.178L606.296 28.3019C548.895 -9.43395 454.29 -9.43395 396.889 28.3019L76.9332 237.178C-25.6444 303.614 -25.6444 454.026 76.9332 520.994L161.972 576.269L396.889 729.338C454.29 767.074 548.895 767.074 606.296 729.338L839.62 576.269L912.434 528.435V691.071C912.434 712.862 930.505 730.933 952.296 730.933C974.087 730.933 992.158 712.862 992.158 691.071V429.578C1013.42 361.015 991.626 281.291 924.659 237.178Z" fill="#2B2B2B"/>
</svg>
