<svg width="596" height="745" viewBox="0 0 596 745" fill="none" xmlns="http://www.w3.org/2000/svg">
<path opacity="0.5" d="M27.0875 27.3162C38.4636 15.8443 54.4353 8.36486 84.5959 4.27555C115.643 0.0659307 156.793 0 215.793 0H380.207C439.207 0 480.357 0.0659307 511.405 4.27555C541.567 8.36486 557.536 15.8443 568.912 27.3162C580.288 38.7884 587.704 54.8946 591.761 85.31C595.933 116.62 596 158.117 596 217.615V596H127.618C87.2529 596 73.1411 596.212 62.3271 598.537C43.2033 602.649 26.5783 611.462 14.4571 623.368C10.3693 627.383 8.32575 629.391 3.61176 642.179C0.90704 649.517 0 654.434 0 659.336V217.615C0 158.117 0.0655627 116.62 4.2398 85.31C8.29483 54.8946 15.7117 38.7884 27.0875 27.3162Z" fill="#2B2B2B"/>
<path d="M596 596H127.618C87.2529 596 73.1411 596.212 62.327 598.537C43.2032 602.649 26.5782 611.462 14.457 623.368C10.3692 627.383 8.32569 629.391 3.61171 642.179C-1.10228 654.97 -0.355795 660.398 1.13719 671.245C1.40092 673.16 1.68439 675.03 1.99021 676.855C6.06089 701.149 13.5064 714.015 24.9262 723.179C36.3459 732.342 52.3794 738.317 82.6562 741.584C113.823 744.948 155.131 745 214.359 745H379.406C438.634 745 479.944 744.948 511.111 741.584C541.388 738.317 557.42 732.342 568.841 723.179C576.276 717.211 582.027 709.676 586.259 698.438H149C133.571 698.438 121.062 685.929 121.062 670.5C121.062 655.071 133.571 642.562 149 642.562H595.084C595.724 629.033 595.933 613.66 596 596Z" fill="#2B2B2B"/>
<path d="M121.062 186.25C121.062 170.821 133.571 158.312 149 158.312H447C462.429 158.312 474.938 170.821 474.938 186.25C474.938 201.679 462.429 214.188 447 214.188H149C133.571 214.188 121.062 201.679 121.062 186.25Z" fill="#2B2B2B"/>
<path d="M149 288.688C133.571 288.688 121.062 301.196 121.062 316.625C121.062 332.054 133.571 344.562 149 344.562H335.25C350.679 344.562 363.188 332.054 363.188 316.625C363.188 301.196 350.679 288.688 335.25 288.688H149Z" fill="#2B2B2B"/>
</svg>
