<svg width="1000" height="891" viewBox="0 0 1000 891" fill="none" xmlns="http://www.w3.org/2000/svg">
<path d="M991.826 486.633H474.902C470.389 486.633 466.729 490.292 466.729 494.807V569.659C466.729 574.172 470.387 577.833 474.902 577.833H554.968V868.273C554.968 880.681 565.028 890.74 577.435 890.74C589.842 890.74 599.902 880.681 599.902 868.273V577.831H866.824V868.273C866.824 880.681 876.885 890.74 889.291 890.74C901.698 890.74 911.759 880.681 911.759 868.273V577.831H991.826C996.341 577.831 1000 574.172 1000 569.657V494.805C1000 490.292 996.341 486.633 991.826 486.633Z" fill="#2B2B2B"/>
<path d="M353.061 179.726C402.691 179.726 442.924 139.493 442.924 89.8632C442.924 40.2331 402.691 0 353.061 0C303.431 0 263.198 40.2331 263.198 89.8632C263.198 139.493 303.431 179.726 353.061 179.726Z" fill="#2B2B2B"/>
<path d="M418.203 561.601C413.092 547.261 401.592 536.122 387.094 531.474L336.053 515.113L345.283 482.896C326.979 479.811 311.497 467.47 304.279 450.568L240.64 300.907L337.633 424.363C346.031 435.057 359.238 440.876 372.877 439.796L456.779 433.12C456.201 435.109 455.877 437.207 455.877 439.383C455.877 451.792 465.938 461.85 478.344 461.85C529.886 461.85 652.599 461.85 703.483 461.85C715.892 461.85 725.951 451.792 725.951 439.383C725.951 426.974 715.89 416.915 703.483 416.915C687.379 416.915 574.081 416.915 558.577 416.915C567.92 408.726 573.444 396.415 572.383 383.078C570.599 360.665 551.025 343.92 528.568 345.722L521.414 346.291C496.805 290.483 503.983 306.761 494.69 285.685C489.681 274.328 476.412 269.185 465.068 274.191C453.714 279.198 448.568 292.461 453.573 303.813C456.723 310.957 466.116 332.261 473.966 350.065L388.177 356.891L304.67 250.602L393.147 316.389L395.929 306.115C405.164 273.885 386.52 240.272 354.292 231.039L254.992 202.589C238.72 197.926 221.24 200.272 206.77 209.054C192.301 217.837 182.157 232.265 178.783 248.852L118.914 543.353C115.612 559.594 120.231 576.707 131.953 589.181H108.66L64.8857 243.522C62.6248 225.676 46.3248 213.037 28.4814 215.302C10.6335 217.563 -1.99907 233.861 0.261801 251.707L47.6444 625.846C49.7053 642.122 63.5509 654.327 79.9574 654.327H197.579V787.707L120.205 850.868C110.592 858.716 109.162 872.868 117.007 882.481C124.855 892.094 139.005 893.525 148.623 885.679L197.577 845.716V868.275C197.577 880.684 207.638 890.742 220.044 890.742C232.451 890.742 242.512 880.684 242.512 868.275V845.716L291.464 885.679C295.638 889.084 300.664 890.742 305.66 890.742C312.175 890.742 318.636 887.923 323.077 882.481C330.925 872.868 329.494 858.716 319.881 850.868L242.512 787.707V654.327H347.516L420.192 858.273C427.318 878.271 446.136 890.742 466.214 890.742C471.657 890.74 477.192 889.825 482.614 887.892C508.031 878.836 521.292 850.888 512.233 825.47L418.203 561.601Z" fill="#2B2B2B"/>
</svg>
